<svg width="337" height="190" viewBox="0 0 337 190" fill="none" xmlns="http://www.w3.org/2000/svg">
<path d="M311.876 185.615C311.406 186.831 310.822 187.999 310.13 189.103C309.937 189.408 309.736 189.709 309.521 190H291.684C291.558 189.906 291.437 189.807 291.312 189.713C290.685 189.664 290.063 189.601 289.454 189.534C289.517 189.48 289.584 189.426 289.646 189.372C289.324 189.399 289.002 189.426 288.679 189.44C288.934 189.471 289.194 189.502 289.454 189.534C289.261 189.691 289.064 189.848 288.863 190H288.084L288.608 189.44C288.191 189.453 287.779 189.462 287.363 189.453L288.666 189.103L290.072 188.727C290.125 188.772 290.184 188.816 290.237 188.861C292.637 186.75 294.588 184.177 295.974 181.295C297.361 178.413 298.154 175.282 298.308 172.087C298.462 168.892 297.972 165.699 296.869 162.697C295.766 159.696 294.071 156.947 291.885 154.614C295.403 156.978 298.416 160.019 300.749 163.56C303.082 167.102 304.688 171.073 305.474 175.241C305.877 177.279 305.938 179.37 305.653 181.428C305.809 181.253 305.966 181.078 306.118 180.899C308.386 178.148 310.021 174.931 310.906 171.476C311.791 168.021 311.905 164.413 311.24 160.908C312.977 164.779 313.927 168.956 314.036 173.198C314.145 177.44 313.411 181.661 311.876 185.615Z" fill="#E6E6E6"/>
<path d="M222.896 35.6706C229.84 35.6706 235.469 30.034 235.469 23.0809C235.469 16.1279 229.84 10.4913 222.896 10.4913C215.952 10.4913 210.323 16.1279 210.323 23.0809C210.323 30.034 215.952 35.6706 222.896 35.6706Z" fill="#2F2E41"/>
<path d="M263.668 184.752L258.179 184.752L255.567 163.552L263.669 163.552L263.668 184.752Z" fill="#FFB8B8"/>
<path d="M254.258 183.182H264.844V189.856H247.593C247.593 188.979 247.765 188.111 248.1 187.302C248.435 186.492 248.926 185.756 249.545 185.136C250.164 184.517 250.899 184.025 251.707 183.69C252.516 183.354 253.383 183.182 254.258 183.182Z" fill="#2F2E41"/>
<path d="M207.675 184.033L202.375 182.602L205.364 161.452L213.186 163.564L207.675 184.033Z" fill="#FFB8B8"/>
<path d="M198.998 180.064L209.219 182.823L207.483 189.267L190.827 184.77C191.287 183.061 192.407 181.605 193.939 180.722C195.471 179.84 197.291 179.603 198.998 180.064Z" fill="#2F2E41"/>
<path d="M218.076 86.6585L201.732 179.402L210.114 181.081L236.517 115.615L256.214 180.661L266.272 179.402C266.272 179.402 261.662 86.2388 246.994 78.2654L218.076 86.6585Z" fill="url(#paint0_linear_46_382)"/>
<path d="M192.155 119.836C192.744 119.542 193.262 119.123 193.672 118.607C194.082 118.091 194.374 117.492 194.527 116.851C194.681 116.21 194.692 115.543 194.561 114.897C194.429 114.252 194.157 113.643 193.765 113.113L202.779 99.8775L194.466 99.7484L187.181 112.337C186.336 113.056 185.785 114.06 185.63 115.158C185.475 116.257 185.729 117.375 186.342 118.299C186.955 119.223 187.885 119.89 188.957 120.173C190.028 120.457 191.166 120.336 192.155 119.836Z" fill="#FFB8B8"/>
<path d="M251.667 103.469C252.256 103.175 252.774 102.756 253.184 102.24C253.593 101.725 253.885 101.125 254.039 100.484C254.192 99.8435 254.204 99.1767 254.072 98.531C253.94 97.8852 253.669 97.2762 253.277 96.7469L262.291 83.511L253.978 83.3818L246.692 95.9707C245.848 96.6893 245.296 97.6931 245.141 98.7919C244.987 99.8907 245.24 101.008 245.853 101.932C246.466 102.857 247.397 103.524 248.468 103.807C249.54 104.09 250.678 103.97 251.667 103.469Z" fill="#FFB8B8"/>
<path d="M223.216 38.1632C229.289 38.1632 234.213 33.2333 234.213 27.152C234.213 21.0706 229.289 16.1407 223.216 16.1407C217.143 16.1407 212.219 21.0706 212.219 27.152C212.219 33.2333 217.143 38.1632 223.216 38.1632Z" fill="#FFB8B8"/>
<path d="M246.994 44.2735C246.575 42.5949 239.45 43.0145 239.45 43.0145C239.45 43.0145 231.428 41.1677 231.504 41.3986C224.743 40.8775 216.496 43.419 215.295 43.8044C212.838 44.4833 208.143 46.5599 204.757 48.0873C204.285 48.3 203.917 48.6904 203.732 49.1736C203.546 49.6567 203.559 50.1937 203.767 50.6676L214.095 74.2787L215.562 89.5961L249.509 79.1047C241.127 75.7475 247.413 45.9521 246.994 44.2735Z" fill="white"/>
<path d="M244.06 44.693L246.846 43.9923L262.081 74.0688L262.919 91.2749L253.28 83.7211V77.0066L243.222 63.9973L244.06 44.693Z" fill="white"/>
<path d="M207.39 47.0012L204.163 48.437C203.995 48.5117 203.848 48.6267 203.735 48.7718C203.622 48.9169 203.546 49.0876 203.515 49.2689L197.122 85.8192L190.835 104.284L199.217 108.48L208.856 85.3995L212.209 68.6134L207.39 47.0012Z" fill="white"/>
<path d="M211.684 21.9611C213.916 21.2273 216.27 22.3777 218.451 23.2535C220.599 24.1166 222.895 24.7386 225.206 24.6026C227.518 24.4667 229.855 23.4893 231.252 21.6409C232.65 19.7924 232.895 17.0221 231.512 15.1631C230.602 13.9392 229.149 13.241 227.694 12.7863C224.586 11.8147 221.106 11.7812 218.152 13.1518C215.197 14.5224 212.88 17.4179 212.636 20.6695" fill="#2F2E41"/>
<path d="M222.561 13.1902C221.811 8.10804 224.592 2.83134 228.386 0.93844C232.181 -0.954463 236.632 0.162177 240.05 2.98095C243.469 5.79971 245.961 10.1313 247.815 14.7358C249.67 19.3404 250.954 24.2722 252.465 29.0743C253.807 33.3392 255.383 37.6067 257.932 40.8686C260.481 44.1304 264.188 46.253 267.739 45.3568C264.821 49.2852 259.453 48.605 256.123 45.2448C252.793 41.8846 251.061 36.6325 249.699 31.5201C248.336 26.4077 247.15 21.0585 244.514 16.8219C239.824 9.28498 230.62 7.02064 224.048 11.7866" fill="#2F2E41"/>
<path d="M336.689 189H125.689V190H336.689V189Z" fill="white"/>
<path d="M163.661 103.074H4.79788C3.52583 103.073 2.30628 102.566 1.4068 101.665C0.507326 100.765 0.00138775 99.5436 0 98.2699V60.3695C0.00138894 59.0958 0.507327 57.8746 1.4068 56.9739C2.30628 56.0732 3.52583 55.5666 4.79788 55.5652H163.661C164.933 55.5666 166.153 56.0732 167.052 56.9739C167.952 57.8746 168.458 59.0958 168.459 60.3695V98.2699C168.458 99.5436 167.952 100.765 167.052 101.665C166.153 102.566 164.933 103.073 163.661 103.074ZM4.79788 56.6329C3.80855 56.6341 2.86008 57.0281 2.16051 57.7286C1.46094 58.4291 1.0674 59.3789 1.0662 60.3695V98.2699C1.0674 99.2605 1.46094 100.21 2.16051 100.911C2.86008 101.611 3.80855 102.005 4.79788 102.007H163.661C164.651 102.005 165.599 101.611 166.299 100.911C166.998 100.21 167.392 99.2605 167.393 98.2699V60.3695C167.392 59.3789 166.998 58.4291 166.299 57.7286C165.599 57.0281 164.651 56.6341 163.661 56.6329H4.79788Z" fill="#3F3D56"/>
<path d="M155.931 95.067H12.5278C12.4577 95.0672 12.3882 95.0536 12.3233 95.0268C12.2585 95.0001 12.1995 94.9608 12.1498 94.9112C12.1002 94.8616 12.0608 94.8027 12.0339 94.7378C12.007 94.673 11.9932 94.6034 11.9932 94.5332C11.9932 94.463 12.007 94.3934 12.0339 94.3286C12.0608 94.2637 12.1002 94.2048 12.1498 94.1552C12.1995 94.1056 12.2585 94.0663 12.3233 94.0396C12.3882 94.0128 12.4577 93.9992 12.5278 93.9994H155.931C156.001 93.9992 156.071 94.0128 156.136 94.0396C156.201 94.0663 156.26 94.1056 156.309 94.1552C156.359 94.2048 156.398 94.2637 156.425 94.3286C156.452 94.3934 156.466 94.463 156.466 94.5332C156.466 94.6034 156.452 94.673 156.425 94.7378C156.398 94.8027 156.359 94.8616 156.309 94.9112C156.26 94.9608 156.201 95.0001 156.136 95.0268C156.071 95.0536 156.001 95.0672 155.931 95.067Z" fill="#E6E6E6"/>
<path d="M27.7211 77.4514H15.9929C15.8518 77.4518 15.7166 77.5083 15.617 77.6083C15.5173 77.7084 15.4614 77.8439 15.4614 77.9852C15.4614 78.1266 15.5173 78.2621 15.617 78.3622C15.7166 78.4622 15.8518 78.5186 15.9929 78.5191H21.3239V87.9582C21.3145 88.6423 21.566 89.3043 22.0271 89.8092C22.4883 90.3141 23.1243 90.624 23.8056 90.6757C23.839 90.6773 23.8733 90.6778 23.9082 90.6778C24.3273 90.67 24.7382 90.5601 25.1053 90.3575C25.4724 90.1549 25.7847 89.8659 26.0151 89.5153C26.0997 89.402 26.1359 89.2598 26.1158 89.1199C26.0957 88.9799 26.0209 88.8536 25.908 88.7688C25.795 88.684 25.653 88.6475 25.5132 88.6675C25.3734 88.6874 25.2472 88.7621 25.1623 88.8751C25.0265 89.1013 24.834 89.288 24.6038 89.4168C24.3737 89.5455 24.114 89.6118 23.8504 89.6091C23.4431 89.5713 23.0654 89.3795 22.7941 89.0729C22.5229 88.7662 22.3784 88.3676 22.3901 87.9582V78.519H27.7211C27.7912 78.5192 27.8607 78.5056 27.9256 78.4788C27.9904 78.4521 28.0494 78.4128 28.0991 78.3632C28.1487 78.3136 28.1881 78.2547 28.215 78.1899C28.2419 78.125 28.2558 78.0555 28.2558 77.9852C28.2558 77.915 28.2419 77.8455 28.215 77.7806C28.1881 77.7157 28.1487 77.6568 28.0991 77.6072C28.0494 77.5576 27.9904 77.5183 27.9256 77.4916C27.8607 77.4649 27.7912 77.4512 27.7211 77.4514Z" fill="white"/>
<path d="M30.2103 90.2795C30.3844 90.2735 30.5494 90.2 30.6704 90.0745C30.7914 89.9491 30.859 89.7815 30.859 89.6071C30.859 89.4326 30.7914 89.265 30.6704 89.1396C30.5494 89.0141 30.3844 88.9406 30.2103 88.9346C30.0362 88.9406 29.8713 89.0141 29.7502 89.1396C29.6292 89.265 29.5616 89.4326 29.5616 89.6071C29.5616 89.7815 29.6292 89.9491 29.7502 90.0745C29.8713 90.2 30.0362 90.2735 30.2103 90.2795Z" fill="#3F3D56"/>
<path d="M34.4751 90.2795C34.6492 90.2735 34.8141 90.2 34.9351 90.0745C35.0562 89.9491 35.1238 89.7815 35.1238 89.6071C35.1238 89.4326 35.0562 89.265 34.9351 89.1396C34.8141 89.0141 34.6492 88.9406 34.4751 88.9346C34.301 88.9406 34.136 89.0141 34.015 89.1396C33.894 89.265 33.8264 89.4326 33.8264 89.6071C33.8264 89.7815 33.894 89.9491 34.015 90.0745C34.136 90.2 34.301 90.2735 34.4751 90.2795Z" fill="#3F3D56"/>
<path d="M38.7399 90.2795C38.9139 90.2735 39.0789 90.2 39.1999 90.0745C39.3209 89.9491 39.3886 89.7815 39.3886 89.6071C39.3886 89.4326 39.3209 89.265 39.1999 89.1396C39.0789 89.0141 38.9139 88.9406 38.7399 88.9346C38.5658 88.9406 38.4008 89.0141 38.2798 89.1396C38.1588 89.265 38.0911 89.4326 38.0911 89.6071C38.0911 89.7815 38.1588 89.9491 38.2798 90.0745C38.4008 90.2 38.5658 90.2735 38.7399 90.2795Z" fill="#3F3D56"/>
<defs>
<linearGradient id="paint0_linear_46_382" x1="234.002" y1="78.2654" x2="234.002" y2="181.081" gradientUnits="userSpaceOnUse">
<stop stop-color="#3DC4E0"/>
<stop offset="0.442147" stop-color="#4985EE"/>
</linearGradient>
</defs>
</svg>
