<svg width="364" height="364" viewBox="0 0 364 364" fill="none" xmlns="http://www.w3.org/2000/svg">
<path d="M55.0004 158.333H163.647C160.422 158.293 157.331 157.041 154.987 154.827C152.642 152.612 151.217 149.596 150.994 146.379L149.073 113.998H40.4331L42.3477 146.379C42.5705 149.596 43.9956 152.612 46.3398 154.827C48.684 157.041 51.7757 158.293 55.0004 158.333Z" fill="url(#paint0_linear_840_1039)"/>
<path opacity="0.6" d="M55.0004 158.333H163.647C160.422 158.293 157.331 157.041 154.987 154.827C152.642 152.612 151.217 149.596 150.994 146.379L149.073 113.998H40.4331L42.3477 146.379C42.5705 149.596 43.9956 152.612 46.3398 154.827C48.684 157.041 51.7757 158.293 55.0004 158.333Z" fill="white"/>
<path d="M171.699 92.456H74.984C73.4422 92.4378 71.9134 92.74 70.4944 93.3433C69.0754 93.9466 67.7972 94.838 66.7405 95.961C65.6839 97.084 64.872 98.4141 64.3561 99.8672C63.8403 101.32 63.6317 102.865 63.7437 104.403L66.248 146.386C66.3622 147.925 66.1552 149.47 65.6402 150.924C65.1251 152.378 64.3133 153.709 63.2562 154.833C62.1992 155.956 60.92 156.847 59.5 157.45C58.08 158.052 56.5501 158.353 55.0077 158.333H163.647C165.19 158.353 166.719 158.052 168.139 157.45C169.559 156.847 170.839 155.956 171.896 154.833C172.953 153.709 173.765 152.378 174.28 150.924C174.795 149.47 175.002 147.925 174.887 146.386L175.157 150.929L172.405 104.432C172.287 102.891 172.49 101.342 173.003 99.8849C173.517 98.4274 174.328 97.0927 175.385 95.966C176.443 94.8394 177.723 93.9454 179.146 93.341C180.568 92.7367 182.1 92.4353 183.645 92.456H171.699Z" fill="url(#paint1_linear_840_1039)"/>
<path d="M183.645 92.456H74.984C78.2085 92.4923 81.3011 93.7418 83.6458 95.9557C85.9905 98.1696 87.4154 101.185 87.6366 104.402L96.9914 262.153H205.631L196.298 104.432C196.08 101.21 194.658 98.1895 192.313 95.9702C189.968 93.7509 186.873 92.4962 183.645 92.456Z" fill="url(#paint2_linear_840_1039)"/>
<path opacity="0.8" d="M183.645 92.456H74.984C78.2085 92.4923 81.3011 93.7418 83.6458 95.9557C85.9905 98.1696 87.4154 101.185 87.6366 104.402L96.9914 262.153H205.631L196.298 104.432C196.08 101.21 194.658 98.1895 192.313 95.9702C189.968 93.7509 186.873 92.4962 183.645 92.456Z" fill="white"/>
<path d="M124.24 137.359H104.104L102.888 117.208H123.032L124.24 137.359ZM106.288 134.986H121.7L120.848 119.574H105.407L106.288 134.986Z" fill="white"/>
<path d="M127.051 184.759H106.892L105.698 164.601H125.857L127.051 184.759ZM109.12 182.386H124.532L123.622 166.974H108.21L109.12 182.386Z" fill="white"/>
<path d="M129.853 232.159H109.695L108.472 212.001H128.63L129.853 232.159ZM111.93 229.786H127.342L126.424 214.374H111.013L111.93 229.786Z" fill="white"/>
<path d="M180.427 117.201H134.083V119.574H180.427V117.201Z" fill="white"/>
<path d="M175.506 126.097H134.607V128.47H175.506V126.097Z" fill="white"/>
<path d="M181.476 134.986H135.131V137.359H181.476V134.986Z" fill="white"/>
<path d="M183.23 164.601H136.886V166.974H183.23V164.601Z" fill="white"/>
<path d="M164.615 173.497H137.41V175.87H164.615V173.497Z" fill="white"/>
<path d="M151.985 182.386H137.941V184.759H151.985V182.386Z" fill="white"/>
<path d="M184.286 182.386H161.114V184.759H184.286V182.386Z" fill="white"/>
<path d="M186.033 212.001H139.689V214.374H186.033V212.001Z" fill="white"/>
<path d="M186.565 220.897H140.22V223.27H186.565V220.897Z" fill="white"/>
<path d="M166.377 229.786H140.744V232.159H166.377V229.786Z" fill="white"/>
<path d="M115.483 132.612C114.979 132.613 114.494 132.42 114.129 132.074L109.2 127.4C109.012 127.222 108.86 127.008 108.755 126.771C108.649 126.534 108.591 126.279 108.584 126.02C108.569 125.496 108.763 124.988 109.124 124.608C109.484 124.228 109.98 124.006 110.504 123.992C111.027 123.977 111.535 124.172 111.915 124.532L115.424 127.844L123.323 119.45C123.682 119.069 124.178 118.846 124.702 118.83C125.225 118.814 125.734 119.007 126.115 119.367C126.496 119.726 126.719 120.222 126.735 120.745C126.751 121.269 126.558 121.777 126.199 122.158L116.946 131.994C116.769 132.184 116.555 132.337 116.317 132.443C116.08 132.55 115.823 132.607 115.563 132.612H115.483Z" fill="url(#paint3_linear_840_1039)"/>
<path d="M118.293 180.013C117.789 180.015 117.303 179.822 116.939 179.474L111.988 174.8C111.793 174.624 111.635 174.411 111.524 174.173C111.412 173.935 111.35 173.677 111.339 173.414C111.329 173.152 111.371 172.89 111.463 172.644C111.555 172.398 111.696 172.173 111.876 171.982C112.056 171.79 112.273 171.637 112.513 171.531C112.754 171.425 113.013 171.368 113.276 171.363C113.538 171.359 113.799 171.407 114.043 171.504C114.287 171.602 114.509 171.747 114.696 171.932L118.213 175.244L126.104 166.85C126.463 166.469 126.959 166.246 127.483 166.23C128.006 166.215 128.515 166.407 128.896 166.767C129.277 167.126 129.5 167.622 129.516 168.145C129.532 168.669 129.339 169.177 128.98 169.559L119.727 179.394C119.551 179.584 119.338 179.736 119.102 179.843C118.865 179.949 118.61 180.007 118.351 180.013H118.293Z" fill="url(#paint4_linear_840_1039)"/>
<path d="M121.095 227.42C120.591 227.419 120.106 227.224 119.741 226.874L114.791 222.2C114.596 222.024 114.438 221.811 114.327 221.573C114.215 221.335 114.152 221.077 114.142 220.814C114.132 220.552 114.174 220.29 114.266 220.044C114.358 219.798 114.498 219.573 114.679 219.382C114.859 219.191 115.076 219.037 115.316 218.931C115.557 218.825 115.816 218.768 116.079 218.763C116.341 218.759 116.602 218.807 116.846 218.904C117.09 219.002 117.312 219.147 117.499 219.332L121.015 222.644L128.914 214.25C129.284 213.933 129.758 213.763 130.246 213.775C130.733 213.786 131.199 213.978 131.554 214.312C131.909 214.647 132.127 215.101 132.166 215.587C132.206 216.073 132.064 216.556 131.768 216.944L122.515 226.779C122.337 226.969 122.123 227.121 121.886 227.227C121.648 227.334 121.392 227.392 121.132 227.398L121.095 227.42Z" fill="url(#paint5_linear_840_1039)"/>
<path d="M225.503 115.842L211.364 119.318L253.559 290.973L267.698 287.498L225.503 115.842Z" fill="url(#paint6_linear_840_1039)"/>
<path opacity="0.2" d="M225.496 115.841L221.19 116.899L263.385 288.555L267.69 287.496L225.496 115.841Z" fill="black"/>
<path d="M266.63 290.051L255.672 292.745C254.793 292.961 254.256 293.848 254.472 294.727L256.307 302.192C256.523 303.07 257.41 303.608 258.289 303.392L269.247 300.698C270.125 300.482 270.662 299.595 270.446 298.716L268.611 291.251C268.395 290.373 267.508 289.835 266.63 290.051Z" fill="url(#paint7_linear_840_1039)"/>
<path opacity="0.7" d="M266.63 290.051L255.672 292.745C254.793 292.961 254.256 293.848 254.472 294.727L256.307 302.192C256.523 303.07 257.41 303.608 258.289 303.392L269.247 300.698C270.125 300.482 270.662 299.595 270.446 298.716L268.611 291.251C268.395 290.373 267.508 289.835 266.63 290.051Z" fill="white"/>
<path d="M266.714 285.028L253.275 288.331C252.463 288.531 251.967 289.351 252.166 290.163L253.369 295.055C253.568 295.867 254.388 296.364 255.201 296.164L268.64 292.861C269.452 292.661 269.948 291.841 269.749 291.029L268.546 286.137C268.347 285.325 267.526 284.828 266.714 285.028Z" fill="#E0E0E0"/>
<path d="M225.505 115.825L211.368 119.305L213.027 107.475L214.09 99.8889L218.553 106.113L225.505 115.825Z" fill="#E0E0E0"/>
<path d="M218.553 106.113L213.027 107.475L214.09 99.8889L218.553 106.113Z" fill="url(#paint8_linear_840_1039)"/>
<path d="M262.022 104.599C261.949 108.967 261.105 117.201 263.405 119.887C258.117 121.626 253.376 124.718 249.653 128.856C246.501 123.702 250.614 120.928 250.614 120.928C255.149 119.472 254.873 116.058 253.919 112.92L262.022 104.599Z" fill="#FFB573"/>
<path d="M248.314 124.408C249.515 119.945 246.13 119.312 251.772 117.128C256.183 115.381 264.519 115.133 266.477 116.538C267.562 117.324 266.07 120.076 266.07 120.076L248.314 124.408Z" fill="#263238"/>
<path d="M272.767 123.447C273.095 123.971 273.328 124.372 273.59 124.83C273.852 125.289 274.07 125.711 274.318 126.155C274.784 127.043 275.22 127.931 275.643 128.834C276.487 130.632 277.222 132.474 277.9 134.338C279.259 138.113 280.235 142.015 280.812 145.986L281.001 147.486C281.037 147.697 281.066 148.075 281.088 148.403C281.11 148.73 281.088 149.029 281.088 149.32C281.072 150.394 280.991 151.466 280.848 152.531C280.593 154.54 280.207 156.44 279.785 158.355C278.925 162.089 277.839 165.767 276.531 169.369C276.357 169.858 276.011 170.266 275.559 170.518C275.106 170.77 274.576 170.849 274.07 170.739C273.563 170.629 273.114 170.339 272.806 169.922C272.498 169.505 272.352 168.99 272.396 168.474C272.687 164.776 273.029 161.048 273.299 157.408C273.43 155.588 273.531 153.768 273.561 152.05C273.561 151.198 273.561 150.354 273.481 149.648L273.415 149.16L273.32 148.687L273.051 147.42C272.273 144.008 271.227 140.664 269.921 137.417C269.265 135.787 268.559 134.17 267.817 132.576C267.448 131.775 267.062 130.989 266.659 130.217L266.048 129.067L265.473 128.012L265.371 127.822C264.84 126.845 264.712 125.699 265.013 124.628C265.313 123.557 266.02 122.646 266.982 122.088C267.944 121.53 269.085 121.369 270.164 121.639C271.243 121.909 272.174 122.589 272.76 123.534L272.767 123.447Z" fill="#FFB573"/>
<path d="M270.816 170.84L271.42 169.835L273.124 166.967L276.247 168.736C276.895 171.648 274.915 174.225 274.915 174.225L274.034 174.953C273.734 175.214 273.345 175.351 272.948 175.336C272.55 175.321 272.173 175.156 271.894 174.873L271.216 174.247C270.79 173.798 270.521 173.224 270.449 172.61C270.377 171.996 270.506 171.375 270.816 170.84Z" fill="#FFB573"/>
<path d="M229.32 169.355L228.818 167.535C228.7 167.107 228.419 166.742 228.035 166.518C227.651 166.295 227.195 166.231 226.765 166.341L224.581 166.901L223.234 167.236C222.526 167.421 221.897 167.831 221.442 168.405C220.988 168.979 220.733 169.686 220.715 170.418V171.502C220.712 171.975 220.888 172.431 221.209 172.778C221.529 173.125 221.969 173.338 222.44 173.373L223.787 173.504C225.808 173.182 227.66 172.187 229.043 170.68C229.193 170.498 229.297 170.282 229.345 170.051C229.393 169.82 229.385 169.581 229.32 169.355Z" fill="#FFB573"/>
<path d="M269.127 120.244C272.949 121.94 276.451 125.98 279.319 133.457C278.402 136.536 268.93 141.581 268.93 141.581C268.93 141.581 257.115 116.531 269.127 120.244Z" fill="url(#paint9_linear_840_1039)"/>
<path d="M237.51 129.817C237.546 132.591 232.953 139.019 238.238 142.746C238.697 148.359 239.315 153.885 240.517 163.094H268.785C266.099 152.902 268.421 146.059 272.731 128.15C272.977 127.187 273.012 126.183 272.834 125.206C272.656 124.229 272.269 123.302 271.699 122.488C271.129 121.674 270.391 120.993 269.533 120.491C268.676 119.99 267.72 119.679 266.732 119.581C265.604 119.472 264.41 119.377 263.194 119.312C258.919 119.006 254.627 119.006 250.352 119.312C248.961 119.436 247.527 119.61 246.151 119.8C243.747 120.15 241.549 121.356 239.962 123.196C238.374 125.036 237.504 127.387 237.51 129.817Z" fill="white"/>
<path d="M246.872 127.116C246.938 129.198 246.872 131.193 246.872 133.231C246.872 135.27 246.741 137.286 246.61 139.325C246.385 143.457 245.898 147.571 245.154 151.642C245.067 152.159 244.928 152.698 244.805 153.222C244.681 153.746 244.572 154.27 244.404 154.824L244.171 155.632L244.047 156.04C244.001 156.223 243.942 156.403 243.873 156.578C243.568 157.362 243.151 158.098 242.635 158.762C241.925 159.684 241.149 160.552 240.313 161.361C239.548 162.126 238.769 162.817 237.983 163.545C234.887 166.212 231.597 168.646 228.141 170.825C227.707 171.098 227.189 171.206 226.682 171.129C226.176 171.053 225.713 170.797 225.379 170.408C225.045 170.019 224.861 169.523 224.862 169.011C224.862 168.498 225.047 168.003 225.382 167.615C227.981 164.652 230.66 161.711 233.157 158.799C233.768 158.071 234.365 157.343 234.933 156.615C235.466 155.968 235.953 155.284 236.389 154.569C236.564 154.3 236.673 153.972 236.578 154.154C236.484 154.336 236.578 154.059 236.578 153.979L236.644 153.659L236.782 153.026C236.884 152.618 236.942 152.159 237.015 151.715C237.088 151.271 237.175 150.827 237.219 150.361C237.714 146.685 237.947 142.812 238.085 138.939C238.223 135.066 238.311 131.12 238.333 127.291C238.326 126.73 238.431 126.173 238.64 125.652C238.849 125.131 239.158 124.656 239.551 124.255C240.343 123.445 241.425 122.983 242.559 122.97C243.692 122.958 244.784 123.396 245.594 124.188C246.405 124.981 246.867 126.063 246.879 127.196L246.872 127.116Z" fill="#FFB573"/>
<path d="M243.756 120.448C240.269 122.18 236.811 125.544 235.377 133.246C236.287 136.296 248.75 142.171 248.75 142.171C248.75 142.171 255.688 115.992 243.756 120.448Z" fill="white"/>
<path d="M244.521 101.818C244.615 102.364 244.397 102.874 244.033 102.939C243.669 103.005 243.305 102.626 243.21 102.073C243.116 101.52 243.341 101.017 243.698 100.952C244.055 100.886 244.433 101.265 244.521 101.818Z" fill="#263238"/>
<path d="M243.88 100.944L242.49 100.828C242.49 100.828 243.327 101.723 243.88 100.944Z" fill="#263238"/>
<path d="M244.39 102.43C244.104 103.787 243.636 105.099 242.999 106.332C243.318 106.481 243.666 106.558 244.018 106.558C244.371 106.558 244.718 106.481 245.038 106.332L244.39 102.43Z" fill="#ED893E"/>
<path d="M243.079 98.0616C242.996 98.061 242.916 98.0299 242.854 97.9743C242.823 97.9438 242.798 97.9075 242.782 97.8675C242.765 97.8275 242.756 97.7846 242.756 97.7413C242.756 97.698 242.765 97.6551 242.782 97.6151C242.798 97.5751 242.823 97.5388 242.854 97.5083C243.209 97.1167 243.653 96.8148 244.147 96.6276C244.642 96.4403 245.174 96.3729 245.7 96.4309C245.742 96.4387 245.782 96.4548 245.817 96.4781C245.853 96.5015 245.883 96.5316 245.907 96.5669C245.93 96.6021 245.947 96.6417 245.955 96.6833C245.963 96.725 245.963 96.7678 245.955 96.8095C245.937 96.8966 245.886 96.9735 245.813 97.0238C245.74 97.0741 245.649 97.0938 245.562 97.0788C245.145 97.041 244.726 97.1009 244.336 97.2538C243.947 97.4067 243.599 97.6485 243.32 97.9597C243.256 98.0241 243.17 98.0607 243.079 98.0616Z" fill="#263238"/>
<path d="M262.539 96.3945C263.267 103.238 263.704 106.121 260.915 110.226C256.715 116.451 248.27 116.05 245.554 109.622C243.108 103.798 242.344 93.6062 248.43 89.6313C249.739 88.7385 251.26 88.2054 252.84 88.0854C254.42 87.9654 256.004 88.2628 257.433 88.9478C258.862 89.6328 260.086 90.6813 260.982 91.9882C261.878 93.2952 262.415 94.8147 262.539 96.3945Z" fill="#FFB573"/>
<path d="M250.09 101.396C245.722 100.624 244.666 95.6082 246.282 93.4242C238.922 93.7518 233.965 85.5182 241.914 80.8226C249.864 76.127 256.882 83.3997 256.314 86.1442C266.106 85.2561 271.842 93.315 266.506 99.3065C273.546 100.449 284.087 108.385 276.349 116.72C286.81 118.256 287.946 151.016 259.467 145.192C229.444 139.048 255.528 112.92 255.528 112.92C255.528 112.92 247.92 110.78 250.09 101.396Z" fill="#263238"/>
<path d="M277.98 118.853L277.361 118.475C280.003 114.18 280.44 110.27 278.657 106.827C276.363 102.459 270.801 99.8816 266.484 99.6341L266.528 98.9061C271.042 99.1609 276.888 101.818 279.304 106.485C281.183 110.125 280.724 114.391 277.98 118.853Z" fill="#263238"/>
<path d="M269.702 100.042C272.214 99.6268 271.027 95.5281 269.178 94.4434C267.329 93.3587 258.469 95.1205 259.445 97.9451C260.42 100.77 266.332 100.602 269.702 100.042Z" fill="white"/>
<path d="M270.154 99.008C272.658 98.5275 271.653 95.2078 269.775 94.1668C267.897 93.1257 260.158 93.8974 261.214 96.6856C262.269 99.4739 266.805 99.6704 270.154 99.008Z" fill="url(#paint10_linear_840_1039)"/>
<path d="M243.916 94.2542C242.239 94.2316 240.617 93.65 239.308 92.6016C237.219 90.9782 236.069 88.5466 236.396 86.4063C236.593 85.045 237.444 83.174 240.415 81.9874L240.684 82.6644C238.587 83.5016 237.357 84.8484 237.117 86.5082C236.855 88.401 237.896 90.5632 239.781 92.0265C240.656 92.7558 241.709 93.2388 242.833 93.4256C243.956 93.6124 245.109 93.4964 246.173 93.0894L246.45 93.7664C245.646 94.0953 244.785 94.2611 243.916 94.2542Z" fill="#263238"/>
<path d="M251.815 102.197C251.488 103.988 251.386 104.752 250.454 105.589C250.189 105.885 249.841 106.095 249.455 106.19C249.069 106.285 248.664 106.261 248.292 106.122C247.92 105.983 247.598 105.734 247.369 105.409C247.141 105.084 247.016 104.698 247.01 104.301C246.865 102.655 247.425 100.005 249.092 99.4521C250.76 98.8988 252.143 100.413 251.815 102.197Z" fill="#FFB573"/>
<path d="M247.797 107.897L247.207 106.841C247.182 106.798 247.169 106.749 247.169 106.699C247.169 106.649 247.182 106.601 247.207 106.557L247.797 105.509C247.822 105.464 247.859 105.426 247.904 105.399C247.948 105.373 247.999 105.359 248.051 105.359C248.103 105.359 248.155 105.373 248.199 105.399C248.244 105.426 248.281 105.464 248.306 105.509L248.896 106.557C248.921 106.601 248.934 106.649 248.934 106.699C248.934 106.749 248.921 106.798 248.896 106.841L248.306 107.897C248.281 107.942 248.244 107.98 248.199 108.007C248.155 108.033 248.103 108.047 248.051 108.047C247.999 108.047 247.948 108.033 247.904 108.007C247.859 107.98 247.822 107.942 247.797 107.897Z" fill="white"/>
<path d="M240.531 163.072C240.531 163.072 239.534 199.574 238.202 223.583C236.789 245.62 234.977 297.155 234.977 297.155L240.546 297.446C240.546 297.446 252.864 254.079 252.347 227.879C266.805 191.231 261.607 164.171 261.607 164.171L240.531 163.072Z" fill="#FFB573"/>
<path d="M235.392 294.84C235.268 294.751 235.119 294.702 234.966 294.702C234.813 294.702 234.664 294.751 234.54 294.84C231.867 296.824 228.63 297.9 225.302 297.912C221.603 298.072 222.513 300.096 227.806 300.773C234.03 301.545 235.362 302.826 237.372 303.329C239.381 303.831 240.975 302.302 240.939 298.08C240.936 297.935 240.89 297.796 240.807 297.678C240.724 297.56 240.608 297.469 240.473 297.417C238.684 296.761 236.978 295.896 235.392 294.84Z" fill="#263238"/>
<path d="M247.92 163.072C247.92 163.072 258.112 206.272 264.017 226.408C270.226 247.52 275.148 295.699 275.111 297.293H279.931C279.931 297.293 286.155 258.243 278.475 226.386C277.747 174.698 268.836 163.108 268.836 163.108L247.92 163.072Z" fill="#FFB573"/>
<path d="M274.988 295.568C274.862 295.516 274.723 295.507 274.592 295.541C274.461 295.575 274.344 295.651 274.26 295.757C273.015 297.373 272.112 299.164 268.436 300.737C265.392 302.033 267.074 303.809 271.835 303.161C277.434 302.389 277.514 303.299 279.399 303.299C281.285 303.299 282.173 301.421 280.797 297.337C280.753 297.202 280.673 297.081 280.565 296.989C280.457 296.896 280.326 296.835 280.185 296.813C278.409 296.61 276.663 296.192 274.988 295.568Z" fill="#263238"/>
<path d="M240.531 163.072C240.531 163.072 235.726 195.06 236.404 238.784C251.603 238.698 266.707 236.367 281.226 231.868C281.226 231.868 281.445 175.215 268.8 163.094C261.498 161.128 240.699 162.431 240.531 163.072Z" fill="url(#paint11_linear_840_1039)"/>
<path opacity="0.2" d="M241.092 232.574C241.045 232.574 241 232.556 240.966 232.523C240.932 232.491 240.912 232.446 240.91 232.399C239.548 204.481 242.854 165.067 242.883 164.695C242.883 164.671 242.889 164.647 242.9 164.625C242.91 164.604 242.925 164.584 242.944 164.568C242.962 164.553 242.984 164.541 243.007 164.534C243.031 164.527 243.055 164.525 243.079 164.528C243.103 164.53 243.126 164.536 243.148 164.547C243.169 164.558 243.188 164.573 243.204 164.591C243.219 164.61 243.231 164.631 243.239 164.654C243.246 164.677 243.249 164.701 243.247 164.725C243.21 165.125 239.912 204.51 241.274 232.429C241.276 232.453 241.273 232.477 241.265 232.5C241.257 232.523 241.244 232.544 241.228 232.562C241.212 232.579 241.192 232.594 241.169 232.603C241.147 232.613 241.123 232.618 241.099 232.618L241.092 232.574Z" fill="white"/>
<defs>
<linearGradient id="paint0_linear_840_1039" x1="102.04" y1="113.998" x2="102.04" y2="158.333" gradientUnits="userSpaceOnUse">
<stop stop-color="#3DC4E0"/>
<stop offset="0.442147" stop-color="#4985EE"/>
</linearGradient>
<linearGradient id="paint1_linear_840_1039" x1="119.326" y1="92.455" x2="119.326" y2="158.334" gradientUnits="userSpaceOnUse">
<stop stop-color="#3DC4E0"/>
<stop offset="0.442147" stop-color="#4985EE"/>
</linearGradient>
<linearGradient id="paint2_linear_840_1039" x1="140.307" y1="92.456" x2="140.307" y2="262.153" gradientUnits="userSpaceOnUse">
<stop stop-color="#3DC4E0"/>
<stop offset="0.442147" stop-color="#4985EE"/>
</linearGradient>
<linearGradient id="paint3_linear_840_1039" x1="117.659" y1="118.829" x2="117.659" y2="132.612" gradientUnits="userSpaceOnUse">
<stop stop-color="#3DC4E0"/>
<stop offset="0.442147" stop-color="#4985EE"/>
</linearGradient>
<linearGradient id="paint4_linear_840_1039" x1="120.427" y1="166.229" x2="120.427" y2="180.013" gradientUnits="userSpaceOnUse">
<stop stop-color="#3DC4E0"/>
<stop offset="0.442147" stop-color="#4985EE"/>
</linearGradient>
<linearGradient id="paint5_linear_840_1039" x1="123.157" y1="213.774" x2="123.157" y2="227.42" gradientUnits="userSpaceOnUse">
<stop stop-color="#3DC4E0"/>
<stop offset="0.442147" stop-color="#4985EE"/>
</linearGradient>
<linearGradient id="paint6_linear_840_1039" x1="218.434" y1="117.58" x2="260.628" y2="289.236" gradientUnits="userSpaceOnUse">
<stop stop-color="#3DC4E0"/>
<stop offset="0.442147" stop-color="#4985EE"/>
</linearGradient>
<linearGradient id="paint7_linear_840_1039" x1="261.151" y1="291.398" x2="263.768" y2="302.045" gradientUnits="userSpaceOnUse">
<stop stop-color="#3DC4E0"/>
<stop offset="0.442147" stop-color="#4985EE"/>
</linearGradient>
<linearGradient id="paint8_linear_840_1039" x1="215.79" y1="99.8889" x2="215.79" y2="107.475" gradientUnits="userSpaceOnUse">
<stop stop-color="#3DC4E0"/>
<stop offset="0.442147" stop-color="#4985EE"/>
</linearGradient>
<linearGradient id="paint9_linear_840_1039" x1="271.528" y1="119.868" x2="271.528" y2="141.581" gradientUnits="userSpaceOnUse">
<stop stop-color="#3DC4E0"/>
<stop offset="0.442147" stop-color="#4985EE"/>
</linearGradient>
<linearGradient id="paint10_linear_840_1039" x1="266.381" y1="93.7231" x2="266.381" y2="99.3255" gradientUnits="userSpaceOnUse">
<stop stop-color="#3DC4E0"/>
<stop offset="0.442147" stop-color="#4985EE"/>
</linearGradient>
<linearGradient id="paint11_linear_840_1039" x1="258.782" y1="162.052" x2="258.782" y2="238.784" gradientUnits="userSpaceOnUse">
<stop stop-color="#3DC4E0"/>
<stop offset="0.442147" stop-color="#4985EE"/>
</linearGradient>
</defs>
</svg>
