<svg width="321" height="193" viewBox="0 0 321 193" fill="none" xmlns="http://www.w3.org/2000/svg">
<g clip-path="url(#clip0_46_291)">
<path d="M16.748 192.569C16.7265 192.474 14.6496 183.004 18.8911 175.138C23.1325 167.272 32.1862 163.803 32.2772 163.769L32.691 163.614L32.7887 164.045C32.8102 164.14 34.887 173.61 30.6456 181.476C26.4044 189.342 17.3505 192.811 17.2595 192.845L16.8455 193L16.748 192.569ZM32.1235 164.666C30.31 165.446 23.1525 168.861 19.5702 175.504C15.9876 182.148 17.0685 190.005 17.4132 191.948C19.2259 191.169 26.3806 187.76 29.9665 181.11C33.5489 174.466 32.4684 166.61 32.1235 164.666Z" fill="#F1F1F1"/>
<path d="M27.4043 178.717C19.7822 183.303 16.8467 192.411 16.8467 192.411C16.8467 192.411 26.269 194.085 33.8911 189.499C41.5132 184.913 44.4487 175.805 44.4487 175.805C44.4487 175.805 35.0264 174.131 27.4043 178.717Z" fill="#F1F1F1"/>
<path d="M142.831 105.204C142.947 104.604 142.931 103.986 142.782 103.393C142.633 102.8 142.357 102.247 141.971 101.773C141.586 101.298 141.101 100.914 140.551 100.648C140.002 100.381 139.4 100.238 138.789 100.229L135.259 91.3525L129.342 92.1819L134.503 104.647C134.555 105.675 134.983 106.647 135.705 107.38C136.427 108.113 137.393 108.556 138.42 108.625C139.446 108.693 140.462 108.383 141.275 107.752C142.089 107.122 142.642 106.215 142.831 105.204Z" fill="#9F616A"/>
<path d="M131.929 102.085L130.096 97.7125L118.67 75.9634L119.292 35.7199L119.411 35.704C126.722 34.7381 131.668 68.4245 131.875 69.8592L139.094 94.5487L140.813 99.9907L131.929 102.085Z" fill="white"/>
<path d="M114.373 186.945L119.929 186.944L122.571 165.517L114.372 165.517L114.373 186.945Z" fill="#9F616A"/>
<path d="M112.956 185.131L123.897 185.131H123.897C125.746 185.131 127.519 185.865 128.827 187.173C130.134 188.48 130.869 190.254 130.869 192.103V192.329L112.957 192.33L112.956 185.131Z" fill="#2F2E41"/>
<path d="M63.295 178.481L67.8531 181.657L82.2722 165.588L75.5452 160.901L63.295 178.481Z" fill="#9F616A"/>
<path d="M63.1695 176.183L72.1454 182.437L72.1458 182.438C73.6627 183.495 74.6976 185.111 75.0228 186.932C75.3479 188.752 74.9367 190.627 73.8797 192.144L73.7501 192.33L59.054 182.089L63.1695 176.183Z" fill="#2F2E41"/>
<path d="M111.32 181.908L111.08 141.712L107.585 116.437L101.068 138.664L101.055 138.682L77.4396 172.967L68.2505 168.311L68.3008 168.192C68.8624 166.856 82.0951 135.485 85.6519 135.485C85.9625 135.506 86.2737 135.452 86.5588 135.327C86.8439 135.202 87.0942 135.009 87.2882 134.766C88.3322 133.372 87.482 130.414 87.4733 130.384C86.4551 126.162 89.0152 124.724 89.5251 124.484L90.8965 96.1727L91.0387 96.1825L128.218 98.7905L126.658 134.187L123.303 180.563L123.188 180.576L111.32 181.908Z" fill="url(#paint0_linear_46_291)"/>
<path d="M128.786 105.064L128.626 105.051L88.6399 101.828L88.7386 88.5972L90.6957 54.0523L90.7068 54.0283L98.6769 36.7252L104.327 34.1669L112.57 33.7331L112.59 33.7381L120.112 35.6019L127.938 91.7784L128.786 105.064Z" fill="white"/>
<path d="M113.861 29.2986C118.963 26.5096 120.838 20.1129 118.049 15.011C115.26 9.90918 108.864 8.03418 103.762 10.8231C98.6599 13.612 96.7849 20.0088 99.5738 25.1107C102.363 30.2125 108.759 32.0875 113.861 29.2986Z" fill="#9F616A"/>
<path d="M98.2238 22.7036V18.6017C98.2238 18.6017 94.9159 14.7057 98.5546 13.7243C98.5546 13.7243 99.547 3.9104 108.148 8.49024C108.148 8.49024 120.056 6.52746 118.733 13.3972C118.733 13.3972 121.71 11.6037 120.718 16.1836L118.798 23.5609C118.798 23.5609 119.725 18.6877 116.748 18.0334L115.094 17.052C115.094 17.052 110.463 21.6318 103.516 16.0706C103.516 16.0706 100.539 15.36 100.87 18.3042C101.201 21.2484 98.2238 22.7036 98.2238 22.7036Z" fill="#2F2E41"/>
<path d="M107.715 95.1837C107.722 94.5726 107.595 93.9675 107.342 93.411C107.09 92.8545 106.718 92.3601 106.254 91.9627C105.79 91.5653 105.244 91.2744 104.655 91.1108C104.066 90.9471 103.449 90.9145 102.846 91.0152L97.7808 82.9163L92.1084 84.794L99.4222 96.1309C99.6586 97.1323 100.254 98.0122 101.096 98.6038C101.938 99.1954 102.967 99.4577 103.989 99.341C105.012 99.2242 105.956 98.7365 106.642 97.9703C107.329 97.2041 107.711 96.2126 107.715 95.1837Z" fill="#9F616A"/>
<path d="M94.6327 92.6307L85.4689 74.0254L85.477 73.9802C85.5139 73.7742 89.2027 53.2923 92.0239 45.7638C94.863 38.1876 98.7492 36.6665 98.9132 36.6054L98.9952 36.5749L102.48 39.9173L97.6528 72.1358L102.856 87.6743L94.6327 92.6307Z" fill="white"/>
<path d="M321 0H303.257V17.7434H321V0Z" fill="#F1F1F1"/>
<path d="M182.14 69.0448H164.397V86.7882H182.14V69.0448Z" fill="#F1F1F1"/>
<path d="M174.356 79.013H314.633V7.99762H174.356V79.013Z" fill="white"/>
<path d="M315.79 80.1702H173.199V6.84039H315.79V80.1702ZM175.513 77.8558H313.476V9.15474H175.513V77.8558Z" fill="#E5E5E5"/>
<path d="M299.121 32.9084H191.194V36.4877H299.121V32.9084Z" fill="#E5E5E5"/>
<path d="M299.121 41.5885H191.194V45.1677H299.121V41.5885Z" fill="#E5E5E5"/>
<path d="M299.121 54.4048H279.064V57.5109H299.121V54.4048Z" fill="#6C63FF"/>
<path d="M147.346 192.984H0.385722C0.283422 192.984 0.185312 192.944 0.112975 192.871C0.0406381 192.799 0 192.701 0 192.599C0 192.496 0.0406381 192.398 0.112975 192.326C0.185312 192.254 0.283422 192.213 0.385722 192.213H147.346C147.448 192.213 147.546 192.254 147.618 192.326C147.691 192.398 147.731 192.496 147.731 192.599C147.731 192.701 147.691 192.799 147.618 192.871C147.546 192.944 147.448 192.984 147.346 192.984Z" fill="#CBCBCB"/>
</g>
<defs>
<linearGradient id="paint0_linear_46_291" x1="98.2344" y1="96.1727" x2="98.2344" y2="181.908" gradientUnits="userSpaceOnUse">
<stop stop-color="#3DC4E0"/>
<stop offset="0.442147" stop-color="#4985EE"/>
</linearGradient>
<clipPath id="clip0_46_291">
<rect width="321" height="193" fill="white"/>
</clipPath>
</defs>
</svg>
