<svg width="30" height="30" viewBox="0 0 30 30" fill="none" xmlns="http://www.w3.org/2000/svg">
<path d="M15 27.5C14.3125 27.5 13.724 27.2552 13.2344 26.7656C12.7448 26.276 12.5 25.6875 12.5 25H17.5C17.5 25.6875 17.2552 26.276 16.7656 26.7656C16.276 27.2552 15.6875 27.5 15 27.5ZM10 23.75V21.25H20V23.75H10ZM10.3125 20C8.875 19.1458 7.73438 18 6.89062 16.5625C6.04688 15.125 5.625 13.5625 5.625 11.875C5.625 9.27083 6.53646 7.05729 8.35938 5.23438C10.1823 3.41146 12.3958 2.5 15 2.5C17.6042 2.5 19.8177 3.41146 21.6406 5.23438C23.4635 7.05729 24.375 9.27083 24.375 11.875C24.375 13.5625 23.9531 15.125 23.1094 16.5625C22.2656 18 21.125 19.1458 19.6875 20H10.3125ZM11.0625 17.5H18.9375C19.875 16.8333 20.599 16.0104 21.1094 15.0312C21.6198 14.0521 21.875 13 21.875 11.875C21.875 9.95833 21.2083 8.33333 19.875 7C18.5417 5.66667 16.9167 5 15 5C13.0833 5 11.4583 5.66667 10.125 7C8.79167 8.33333 8.125 9.95833 8.125 11.875C8.125 13 8.38021 14.0521 8.89062 15.0312C9.40104 16.0104 10.125 16.8333 11.0625 17.5Z" fill="url(#paint0_linear_529_623)"/>
<defs>
<linearGradient id="paint0_linear_529_623" x1="15" y1="2.5" x2="15" y2="27.5" gradientUnits="userSpaceOnUse">
<stop stop-color="#3DC4E0"/>
<stop offset="0.442147" stop-color="#4985EE"/>
</linearGradient>
</defs>
</svg>
