<svg width="30" height="30" viewBox="0 0 30 30" fill="none" xmlns="http://www.w3.org/2000/svg">
<path d="M6.90625 22.5C7.78125 22.5 8.52083 22.1979 9.125 21.5938C9.72917 20.9896 10.0312 20.25 10.0312 19.375C10.0312 18.875 9.91667 18.3854 9.6875 17.9062C9.45833 17.4271 9.11458 17.0417 8.65625 16.75L7.53125 16V8.125C7.53125 7.9375 7.47396 7.78646 7.35938 7.67188C7.24479 7.55729 7.09375 7.5 6.90625 7.5C6.71875 7.5 6.56771 7.55729 6.45312 7.67188C6.33854 7.78646 6.28125 7.9375 6.28125 8.125V16L5.15625 16.75C4.69792 17.0625 4.35417 17.4479 4.125 17.9062C3.89583 18.3646 3.78125 18.8542 3.78125 19.375C3.78125 20.25 4.08333 20.9896 4.6875 21.5938C5.29167 22.1979 6.03125 22.5 6.90625 22.5ZM6.90625 25C5.34375 25 4.01562 24.4583 2.92188 23.375C1.82812 22.2917 1.28125 20.9583 1.28125 19.375C1.28125 18.375 1.51042 17.4792 1.96875 16.6875C2.42708 15.8958 3.03125 15.25 3.78125 14.75V8.125C3.78125 7.25 4.08333 6.51042 4.6875 5.90625C5.29167 5.30208 6.03125 5 6.90625 5C7.78125 5 8.52083 5.30208 9.125 5.90625C9.72917 6.51042 10.0312 7.25 10.0312 8.125V14.75C10.7812 15.25 11.3854 15.8958 11.8438 16.6875C12.3021 17.4792 12.5312 18.375 12.5312 19.375C12.5312 20.9375 11.9844 22.2656 10.8906 23.3594C9.79688 24.4531 8.46875 25 6.90625 25ZM17.125 18.75C16.125 18.0625 15.3125 17.1771 14.6875 16.0938C14.0625 15.0104 13.75 13.8125 13.75 12.5C13.75 10.4167 14.4792 8.64583 15.9375 7.1875C17.3958 5.72917 19.1667 5 21.25 5C23.3333 5 25.1042 5.72917 26.5625 7.1875C28.0208 8.64583 28.75 10.4167 28.75 12.5C28.75 13.8125 28.4375 15.0104 27.8125 16.0938C27.1875 17.1771 26.375 18.0625 25.375 18.75H17.125ZM18 16.25H24.625C25.1875 15.75 25.599 15.1875 25.8594 14.5625C26.1198 13.9375 26.25 13.25 26.25 12.5C26.25 11.125 25.7604 9.94792 24.7812 8.96875C23.8021 7.98958 22.625 7.5 21.25 7.5C19.875 7.5 18.6979 7.98958 17.7188 8.96875C16.7396 9.94792 16.25 11.125 16.25 12.5C16.25 13.25 16.401 13.9375 16.7031 14.5625C17.0052 15.1875 17.4375 15.75 18 16.25ZM21.25 25C20.75 25 20.3125 24.8125 19.9375 24.4375C19.5625 24.0625 19.375 23.625 19.375 23.125H23.125C23.125 23.625 22.9375 24.0625 22.5625 24.4375C22.1875 24.8125 21.75 25 21.25 25ZM17.5 22.5V20H25V22.5H17.5Z" fill="url(#paint0_linear_211_2180)"/>
<defs>
<linearGradient id="paint0_linear_211_2180" x1="15.0156" y1="5" x2="15.0156" y2="25" gradientUnits="userSpaceOnUse">
<stop stop-color="#3DC4E0"/>
<stop offset="0.442147" stop-color="#4985EE"/>
</linearGradient>
</defs>
</svg>
