<svg width="30" height="30" viewBox="0 0 30 30" fill="none" xmlns="http://www.w3.org/2000/svg">
<path d="M6.25 23.75H8.03125L20.25 11.5312L18.4688 9.75L6.25 21.9688V23.75ZM3.75 26.25V20.9375L20.25 4.46875C20.5 4.23958 20.776 4.0625 21.0781 3.9375C21.3802 3.8125 21.6979 3.75 22.0312 3.75C22.3646 3.75 22.6875 3.8125 23 3.9375C23.3125 4.0625 23.5833 4.25 23.8125 4.5L25.5312 6.25C25.7812 6.47917 25.9635 6.75 26.0781 7.0625C26.1927 7.375 26.25 7.6875 26.25 8C26.25 8.33333 26.1927 8.65104 26.0781 8.95312C25.9635 9.25521 25.7812 9.53125 25.5312 9.78125L9.0625 26.25H3.75ZM19.3438 10.6562L18.4688 9.75L20.25 11.5312L19.3438 10.6562Z" fill="url(#paint0_linear_529_629)"/>
<defs>
<linearGradient id="paint0_linear_529_629" x1="15" y1="3.75" x2="15" y2="26.25" gradientUnits="userSpaceOnUse">
<stop stop-color="#3DC4E0"/>
<stop offset="0.442147" stop-color="#4985EE"/>
</linearGradient>
</defs>
</svg>
