<svg width="30" height="30" viewBox="0 0 30 30" fill="none" xmlns="http://www.w3.org/2000/svg">
<path d="M5 26.25V20C5 19.3125 5.24479 18.724 5.73438 18.2344C6.22396 17.7448 6.8125 17.5 7.5 17.5H22.5C23.1875 17.5 23.776 17.7448 24.2656 18.2344C24.7552 18.724 25 19.3125 25 20V26.25H5ZM11.25 16.25C9.52083 16.25 8.04688 15.6406 6.82812 14.4219C5.60938 13.2031 5 11.7292 5 10C5 8.27083 5.60938 6.79688 6.82812 5.57812C8.04688 4.35938 9.52083 3.75 11.25 3.75H18.75C20.4792 3.75 21.9531 4.35938 23.1719 5.57812C24.3906 6.79688 25 8.27083 25 10C25 11.7292 24.3906 13.2031 23.1719 14.4219C21.9531 15.6406 20.4792 16.25 18.75 16.25H11.25ZM7.5 23.75H22.5V20H7.5V23.75ZM11.25 13.75H18.75C19.7917 13.75 20.6771 13.3854 21.4062 12.6562C22.1354 11.9271 22.5 11.0417 22.5 10C22.5 8.95833 22.1354 8.07292 21.4062 7.34375C20.6771 6.61458 19.7917 6.25 18.75 6.25H11.25C10.2083 6.25 9.32292 6.61458 8.59375 7.34375C7.86458 8.07292 7.5 8.95833 7.5 10C7.5 11.0417 7.86458 11.9271 8.59375 12.6562C9.32292 13.3854 10.2083 13.75 11.25 13.75ZM11.25 11.25C11.6042 11.25 11.901 11.1302 12.1406 10.8906C12.3802 10.651 12.5 10.3542 12.5 10C12.5 9.64583 12.3802 9.34896 12.1406 9.10938C11.901 8.86979 11.6042 8.75 11.25 8.75C10.8958 8.75 10.599 8.86979 10.3594 9.10938C10.1198 9.34896 10 9.64583 10 10C10 10.3542 10.1198 10.651 10.3594 10.8906C10.599 11.1302 10.8958 11.25 11.25 11.25ZM18.75 11.25C19.1042 11.25 19.401 11.1302 19.6406 10.8906C19.8802 10.651 20 10.3542 20 10C20 9.64583 19.8802 9.34896 19.6406 9.10938C19.401 8.86979 19.1042 8.75 18.75 8.75C18.3958 8.75 18.099 8.86979 17.8594 9.10938C17.6198 9.34896 17.5 9.64583 17.5 10C17.5 10.3542 17.6198 10.651 17.8594 10.8906C18.099 11.1302 18.3958 11.25 18.75 11.25Z" fill="url(#paint0_linear_211_2184)"/>
<defs>
<linearGradient id="paint0_linear_211_2184" x1="15" y1="3.75" x2="15" y2="26.25" gradientUnits="userSpaceOnUse">
<stop stop-color="#3DC4E0"/>
<stop offset="0.442147" stop-color="#4985EE"/>
</linearGradient>
</defs>
</svg>
