<svg width="30" height="30" viewBox="0 0 30 30" fill="none" xmlns="http://www.w3.org/2000/svg">
<path d="M13.75 27.5V22.3125L9.6875 26.3125L7.9375 24.5625L13.75 18.75V16.25H11.25L5.4375 22.0625L3.6875 20.3125L7.6875 16.25H2.5V13.75H7.6875L3.6875 9.6875L5.4375 7.9375L11.25 13.75H13.75V11.25L7.9375 5.4375L9.6875 3.6875L13.75 7.6875V2.5H16.25V7.6875L20.3125 3.6875L22.0625 5.4375L16.25 11.25V13.75H18.75L24.5625 7.9375L26.3125 9.6875L22.3125 13.75H27.5V16.25H22.3125L26.3125 20.3125L24.5625 22.0625L18.75 16.25H16.25V18.75L22.0625 24.5625L20.3125 26.3125L16.25 22.3125V27.5H13.75Z" fill="url(#paint0_linear_529_625)"/>
<defs>
<linearGradient id="paint0_linear_529_625" x1="15" y1="2.5" x2="15" y2="27.5" gradientUnits="userSpaceOnUse">
<stop stop-color="#3DC4E0"/>
<stop offset="0.442147" stop-color="#4985EE"/>
</linearGradient>
</defs>
</svg>
