<svg width="30" height="30" viewBox="0 0 30 30" fill="none" xmlns="http://www.w3.org/2000/svg">
<path d="M18.5 23.4688C18.0417 24.0104 17.474 24.3177 16.7969 24.3906C16.1198 24.4635 15.5104 24.2708 14.9688 23.8125L9.6875 19.4062C9.14583 18.9688 8.67708 18.4688 8.28125 17.9062C7.88542 17.3438 7.5625 16.7396 7.3125 16.0938C7.08333 16.3438 6.8125 16.5365 6.5 16.6719C6.1875 16.8073 5.85417 16.875 5.5 16.875H3V6.875H5.5C6.10417 6.875 6.64062 7.0625 7.10938 7.4375C7.57812 7.8125 7.86458 8.30208 7.96875 8.90625C8.76042 7.69792 9.78125 6.74479 11.0312 6.04688C12.2812 5.34896 13.625 5 15.0625 5C16 5 16.8906 5.16667 17.7344 5.5C18.5781 5.83333 19.3542 6.30208 20.0625 6.90625L25.375 11.3125C25.9167 11.75 26.2135 12.3073 26.2656 12.9844C26.3177 13.6615 26.125 14.2708 25.6875 14.8125L18.5 23.4688ZM9.25 13.0938C9.22917 13.9479 9.40104 14.7552 9.76562 15.5156C10.1302 16.276 10.6354 16.9271 11.2812 17.4688L16.5625 21.875L23.75 13.2188L18.4688 8.8125C17.9688 8.39583 17.4167 8.07812 16.8125 7.85938C16.2083 7.64062 15.5833 7.53125 14.9375 7.53125C13.375 7.51042 12.0417 8.04167 10.9375 9.125C9.83333 10.2083 9.27083 11.5312 9.25 13.0938Z" fill="url(#paint0_linear_529_619)"/>
<defs>
<linearGradient id="paint0_linear_529_619" x1="14.637" y1="5" x2="14.637" y2="24.4056" gradientUnits="userSpaceOnUse">
<stop stop-color="#3DC4E0"/>
<stop offset="0.442147" stop-color="#4985EE"/>
</linearGradient>
</defs>
</svg>
