<svg width="24" height="24" viewBox="0 0 24 24" fill="none" xmlns="http://www.w3.org/2000/svg">
<path d="M21.33 12.9099C21.42 14.4599 20.71 15.95 19.44 16.86L20.21 18.35C20.44 18.8 20.47 19.3299 20.27 19.7999C20.08 20.2699 19.69 20.6399 19.21 20.7999L18.42 21.0499C18.25 21.1099 18.06 21.1399 17.88 21.1399C17.37 21.1399 16.89 20.91 16.56 20.5L14.44 18C13.55 17.85 12.71 17.4699 12 16.8999C11.5 17.0499 11 17.1299 10.5 17.1299C9.62 17.1299 8.74 16.8599 8 16.3399C7.47 16.4999 6.93 16.5699 6.38 16.5599C5.59 16.5699 4.81 16.41 4.08 16.11C2.65 15.47 1.7 14.0699 1.65 12.4999C1.57 11.7799 1.69 11.0499 2 10.3899C1.71 9.63995 1.68 8.81995 1.93 8.05995C2.3 7.10995 3 6.31995 3.87 5.81995C4.45 4.12995 6.08 2.99995 7.87 3.11995C9.47 1.61995 11.92 1.45995 13.7 2.74995C14.12 2.63995 14.56 2.57995 15 2.57995C16.36 2.54995 17.65 3.14995 18.5 4.21995C20.54 4.74995 22 6.56995 22.08 8.68995C22.13 9.79995 21.83 10.8899 21.22 11.8199C21.29 12.1799 21.33 12.5399 21.33 12.9099ZM16.33 11.4999C16.9 11.5699 17.35 11.9999 17.35 12.5699C17.35 12.8352 17.2446 13.0895 17.0571 13.2771C16.8696 13.4646 16.6152 13.5699 16.35 13.5699H15.72C15.4 14.4699 14.84 15.2599 14.1 15.8599C14.35 15.9499 14.61 15.9999 14.87 16.0699C20 15.9999 19.4 12.8699 19.4 12.8199C19.34 11.3899 18.14 10.2699 16.71 10.3299C16.4448 10.3299 16.1904 10.2246 16.0029 10.0371C15.8154 9.84952 15.71 9.59517 15.71 9.32995C15.71 9.06473 15.8154 8.81038 16.0029 8.62284C16.1904 8.43531 16.4448 8.32995 16.71 8.32995C17.94 8.35995 19.12 8.81995 20.04 9.62995C20.09 9.33995 20.12 9.03995 20.12 8.73995C20.06 7.49995 19.5 6.41995 17.25 6.20995C16 3.24995 12.85 4.88995 12.85 5.80995C12.82 6.03995 13.06 6.52995 13.1 6.55995C13.3652 6.55995 13.6196 6.66531 13.8071 6.85284C13.9946 7.04038 14.1 7.29473 14.1 7.55995C14.1 8.10995 13.65 8.55995 13.1 8.55995C12.57 8.53995 12.07 8.33995 11.67 7.99995C11.19 8.30995 10.64 8.49995 10.07 8.55995C9.5 8.60995 9.03 8.20995 9 7.65995C8.92 7.09995 9.33 6.60995 9.88 6.55995C10.04 6.53995 10.82 6.41995 10.82 5.78995C10.82 5.12995 11.07 4.49995 11.5 3.99995C10.58 3.74995 9.59 4.07995 8.59 5.28995C6.75 4.99995 6 5.24995 5.45 7.19995C4.5 7.66995 4 7.99995 3.78 8.99995C4.86 8.77995 5.97 8.86995 7 9.24995C7.5 9.43995 7.78 9.99995 7.59 10.5399C7.4 11.0599 6.82 11.3199 6.3 11.1299C5.57 10.8099 4.75 10.7899 4 11.0699C3.68 11.3399 3.68 11.8999 3.68 12.3399C3.68 13.0799 4.05 13.7699 4.68 14.1699C5.21 14.4399 5.8 14.5799 6.39 14.5699C6.24 14.3099 6.11 14.0399 6 13.7599C5.81 13.2199 6.1 12.6299 6.64 12.4399C7.18 12.2499 7.77 12.5399 7.96 13.0799C8.36 14.2199 9.38 14.9999 10.58 15.1299C11.95 15.0599 13.17 14.2499 13.77 12.9999C14 11.6199 15.11 11.4999 16.33 11.4999ZM18.33 18.9699L17.71 17.6699L17 17.8299L18 19.08L18.33 18.9699ZM13.68 10.3599C13.7 9.82995 13.3 9.37995 12.77 9.32995C12.06 9.28995 11.37 9.52995 10.84 9.99995C10.27 10.5799 9.97 11.3799 10 12.1899C10 12.4552 10.1054 12.7095 10.2929 12.8971C10.4804 13.0846 10.7348 13.1899 11 13.1899C11.57 13.1899 12 12.7399 12 12.1899C12 11.9199 12.07 11.6499 12.23 11.4299C12.35 11.3299 12.5 11.2799 12.66 11.2799C13.21 11.3099 13.68 10.8999 13.68 10.3599Z" fill="url(#paint0_linear_815_878)"/>
<defs>
<linearGradient id="paint0_linear_815_878" x1="11.8556" y1="1.87927" x2="11.8556" y2="21.1399" gradientUnits="userSpaceOnUse">
<stop stop-color="#3DC4E0"/>
<stop offset="0.442147" stop-color="#4985EE"/>
</linearGradient>
</defs>
</svg>
