<svg width="280" height="269" viewBox="0 0 280 269" fill="none" xmlns="http://www.w3.org/2000/svg">
<g clip-path="url(#clip0_386_1306)">
<path d="M42.432 95.3268C42.432 95.3268 46.8148 109.801 45.5001 111.556C44.1854 113.312 59.5251 101.907 59.5251 101.907C59.5251 101.907 53.8275 97.9593 56.0176 92.2576L42.432 95.3268Z" fill="#9F616A"/>
<path d="M235.647 63.7442H234.176V23.3683C234.176 17.1707 231.716 11.2268 227.337 6.84442C222.957 2.46201 217.018 3.04821e-09 210.825 3.04821e-09H125.345C122.278 -4.95617e-05 119.242 0.604354 116.408 1.7787C113.575 2.95305 111.001 4.67433 108.833 6.84429C106.664 9.01424 104.944 11.5904 103.771 14.4256C102.597 17.2608 101.993 20.2995 101.993 23.3683V244.873C101.993 251.071 104.453 257.015 108.833 261.397C113.212 265.779 119.151 268.241 125.344 268.241H210.824C217.017 268.241 222.956 265.779 227.335 261.397C231.714 257.014 234.174 251.07 234.174 244.873V92.4844H235.645L235.647 63.7442Z" fill="#090814"/>
<path d="M229.386 21.8032V246.438C229.386 251.136 227.521 255.642 224.201 258.965C220.882 262.288 216.38 264.156 211.685 264.158H124.448C119.75 264.159 115.245 262.292 111.922 258.968C108.6 255.645 106.733 251.136 106.732 246.435V21.8035C106.734 17.1029 108.601 12.5953 111.923 9.27212C115.245 5.94896 119.75 4.08242 124.447 4.08302H135.029C134.51 5.36173 134.312 6.7486 134.454 8.12172C134.595 9.49483 135.071 10.8122 135.841 11.9579C136.61 13.1037 137.649 14.0427 138.866 14.6926C140.083 15.3425 141.44 15.6833 142.82 15.6851H192.553C193.933 15.6834 195.291 15.3426 196.508 14.6926C197.725 14.0427 198.763 13.1036 199.533 11.9578C200.302 10.812 200.778 9.49462 200.92 8.12145C201.061 6.74828 200.863 5.36137 200.344 4.08264H211.679C216.374 4.08324 220.876 5.94953 224.197 9.27126C227.517 12.593 229.384 17.0983 229.386 21.7967V21.8032Z" fill="white"/>
<path d="M168.043 111.98C188.157 111.98 204.462 95.6625 204.462 75.5338C204.462 55.4052 188.157 39.0877 168.043 39.0877C147.93 39.0877 131.624 55.4052 131.624 75.5338C131.624 95.6625 147.93 111.98 168.043 111.98Z" fill="url(#paint0_linear_386_1306)"/>
<path d="M207.763 151.195H130.245C129.865 151.195 129.5 151.043 129.231 150.774C128.962 150.505 128.81 150.14 128.81 149.759V130.516C128.81 130.136 128.962 129.771 129.231 129.501C129.5 129.232 129.865 129.08 130.245 129.08H207.763C208.143 129.08 208.508 129.232 208.777 129.501C209.046 129.771 209.198 130.136 209.198 130.516V149.758C209.198 150.138 209.046 150.504 208.777 150.773C208.508 151.042 208.143 151.194 207.763 151.194V151.195ZM130.245 129.654C130.017 129.654 129.798 129.745 129.636 129.907C129.475 130.068 129.384 130.288 129.384 130.516V149.758C129.384 149.986 129.475 150.205 129.636 150.367C129.798 150.529 130.017 150.619 130.245 150.62H207.763C207.991 150.619 208.21 150.529 208.372 150.367C208.533 150.205 208.624 149.986 208.624 149.758V130.516C208.624 130.288 208.533 130.068 208.372 129.907C208.21 129.745 207.991 129.654 207.763 129.654H130.245Z" fill="#E6E6E6"/>
<path d="M154.219 136.01C153.955 136.015 153.705 136.123 153.521 136.311C153.336 136.499 153.233 136.752 153.233 137.015C153.233 137.279 153.336 137.531 153.521 137.719C153.705 137.908 153.955 138.016 154.219 138.021H201.588C201.853 138.028 202.11 137.931 202.303 137.75C202.497 137.568 202.611 137.318 202.621 137.053C202.631 136.788 202.536 136.53 202.356 136.335C202.177 136.14 201.928 136.023 201.664 136.011H201.62H154.219V136.01Z" fill="#E6E6E6"/>
<path d="M154.219 142.042C153.952 142.042 153.697 142.148 153.508 142.337C153.32 142.525 153.214 142.781 153.214 143.048C153.214 143.315 153.32 143.57 153.508 143.759C153.697 143.948 153.952 144.054 154.219 144.054H201.588C201.853 144.061 202.11 143.963 202.303 143.782C202.497 143.601 202.611 143.351 202.621 143.086C202.631 142.821 202.536 142.563 202.356 142.368C202.177 142.172 201.928 142.056 201.664 142.043H201.62H154.219V142.042Z" fill="#E6E6E6"/>
<path d="M207.763 183.269H130.245C129.865 183.268 129.5 183.117 129.231 182.848C128.962 182.578 128.81 182.213 128.81 181.832V162.59C128.81 162.209 128.962 161.844 129.231 161.575C129.5 161.306 129.865 161.154 130.245 161.154H207.763C208.143 161.154 208.508 161.306 208.777 161.575C209.046 161.844 209.198 162.209 209.198 162.59V181.833C209.197 182.214 209.046 182.578 208.777 182.847C208.507 183.116 208.143 183.267 207.763 183.267V183.269ZM130.245 161.728C130.017 161.728 129.798 161.819 129.636 161.981C129.475 162.142 129.384 162.361 129.384 162.59V181.833C129.384 182.062 129.475 182.281 129.636 182.442C129.798 182.604 130.017 182.695 130.245 182.695H207.763C207.991 182.695 208.21 182.604 208.372 182.442C208.533 182.281 208.624 182.062 208.624 181.833V162.59C208.624 162.361 208.533 162.142 208.372 161.981C208.21 161.819 207.991 161.728 207.763 161.728H130.245Z" fill="#E6E6E6"/>
<path d="M154.219 168.187C153.952 168.187 153.697 168.293 153.508 168.482C153.32 168.67 153.214 168.926 153.214 169.193C153.214 169.46 153.32 169.715 153.508 169.904C153.697 170.093 153.952 170.199 154.219 170.199H201.588C201.721 170.202 201.853 170.179 201.977 170.131C202.101 170.084 202.214 170.012 202.31 169.92C202.406 169.828 202.483 169.717 202.536 169.596C202.589 169.474 202.618 169.343 202.62 169.21C202.622 169.077 202.598 168.945 202.549 168.821C202.5 168.697 202.427 168.585 202.334 168.49C202.241 168.395 202.13 168.319 202.008 168.267C201.885 168.215 201.754 168.188 201.621 168.187H154.219Z" fill="#E6E6E6"/>
<path d="M154.219 174.222C153.952 174.222 153.697 174.328 153.508 174.516C153.32 174.705 153.214 174.96 153.214 175.227C153.214 175.494 153.32 175.75 153.508 175.938C153.697 176.127 153.952 176.233 154.219 176.233H201.588C201.721 176.236 201.853 176.214 201.977 176.166C202.101 176.118 202.214 176.046 202.31 175.954C202.406 175.862 202.483 175.752 202.536 175.63C202.589 175.508 202.618 175.377 202.62 175.244C202.622 175.111 202.598 174.979 202.549 174.855C202.5 174.732 202.427 174.619 202.334 174.524C202.241 174.429 202.13 174.353 202.008 174.301C201.885 174.249 201.754 174.222 201.621 174.222H154.219Z" fill="#E6E6E6"/>
<path d="M207.763 215.447H130.245C129.865 215.447 129.5 215.296 129.231 215.026C128.962 214.757 128.81 214.392 128.81 214.011V194.769C128.81 194.388 128.962 194.023 129.231 193.753C129.5 193.484 129.865 193.333 130.245 193.332H207.763C208.143 193.333 208.508 193.484 208.777 193.753C209.046 194.023 209.198 194.388 209.198 194.769V214.012C209.198 214.392 209.046 214.758 208.777 215.027C208.508 215.296 208.143 215.448 207.763 215.448V215.447ZM130.245 193.907C130.017 193.907 129.798 193.998 129.636 194.159C129.475 194.321 129.384 194.54 129.384 194.769V214.012C129.384 214.24 129.475 214.459 129.636 214.621C129.798 214.783 130.017 214.874 130.245 214.874H207.763C207.991 214.874 208.21 214.783 208.372 214.621C208.533 214.459 208.624 214.24 208.624 214.012V194.769C208.624 194.54 208.533 194.321 208.372 194.159C208.21 193.998 207.991 193.907 207.763 193.907H130.245Z" fill="#E6E6E6"/>
<path d="M154.219 200.367C153.952 200.367 153.697 200.473 153.508 200.662C153.32 200.85 153.214 201.106 153.214 201.373C153.214 201.639 153.32 201.895 153.508 202.084C153.697 202.272 153.952 202.378 154.219 202.378H201.588C201.853 202.386 202.11 202.288 202.303 202.107C202.497 201.926 202.611 201.675 202.621 201.411C202.631 201.146 202.536 200.888 202.356 200.692C202.177 200.497 201.928 200.381 201.664 200.368H201.62H154.219V200.367Z" fill="#E6E6E6"/>
<path d="M154.219 206.401C153.952 206.401 153.697 206.507 153.508 206.695C153.32 206.884 153.214 207.14 153.214 207.407C153.214 207.673 153.32 207.929 153.508 208.118C153.697 208.306 153.952 208.412 154.219 208.412H201.588C201.853 208.42 202.11 208.322 202.303 208.141C202.497 207.96 202.611 207.709 202.621 207.444C202.631 207.18 202.536 206.921 202.356 206.726C202.177 206.531 201.928 206.415 201.664 206.402H201.62H154.219V206.401Z" fill="#E6E6E6"/>
<path d="M279.269 268.943H0.730911C0.326987 268.943 0 268.767 0 268.549C0 268.331 0.327365 268.155 0.730911 268.155H279.269C279.673 268.155 280 268.331 280 268.549C280 268.767 279.673 268.943 279.269 268.943Z" fill="#E6E6E6"/>
<path d="M267.473 253.558C266.283 253.976 265.005 254.081 263.763 253.862C262.52 253.643 261.356 253.108 260.38 252.307C257.896 250.221 257.117 246.783 256.483 243.6L254.609 234.185L258.533 236.889C261.355 238.834 264.241 240.841 266.195 243.658C268.15 246.474 269.002 250.32 267.432 253.367" fill="#E6E6E6"/>
<path d="M266.867 265.611C267.361 262.01 267.869 258.363 267.522 254.723C267.214 251.49 266.229 248.333 264.222 245.745C263.158 244.373 261.862 243.198 260.393 242.272C260.01 242.03 259.658 242.638 260.039 242.878C262.58 244.485 264.545 246.859 265.651 249.655C266.873 252.766 267.07 256.156 266.858 259.46C266.731 261.458 266.461 263.443 266.189 265.423C266.168 265.513 266.181 265.607 266.227 265.687C266.272 265.768 266.347 265.827 266.434 265.855C266.524 265.879 266.62 265.867 266.7 265.821C266.781 265.775 266.841 265.699 266.866 265.61L266.867 265.611Z" fill="#F2F2F2"/>
<path d="M263.311 259.833C262.801 260.609 262.099 261.241 261.274 261.667C260.449 262.093 259.528 262.3 258.6 262.266C256.216 262.153 254.227 260.488 252.438 258.907L247.145 254.227L250.648 254.06C253.167 253.939 255.752 253.826 258.153 254.604C260.554 255.381 262.766 257.253 263.205 259.737" fill="#E6E6E6"/>
<path d="M268.262 267.682C265.886 263.471 263.126 258.791 258.198 257.296C256.828 256.881 255.391 256.733 253.965 256.858C253.516 256.896 253.628 257.59 254.078 257.552C256.469 257.353 258.854 257.985 260.834 259.34C262.739 260.638 264.222 262.441 265.477 264.355C266.246 265.525 266.935 266.748 267.623 267.968C267.842 268.357 268.485 268.076 268.262 267.682Z" fill="#F2F2F2"/>
<path d="M139.916 146.053C143.246 146.053 145.945 143.352 145.945 140.019C145.945 136.687 143.246 133.986 139.916 133.986C136.586 133.986 133.887 136.687 133.887 140.019C133.887 143.352 136.586 146.053 139.916 146.053Z" fill="url(#paint1_linear_386_1306)"/>
<path d="M137.03 138.892C136.96 138.892 136.904 139.343 136.904 139.898C136.904 140.453 136.96 140.904 137.03 140.904H142.958C143.028 140.913 143.085 140.47 143.086 139.915C143.125 139.569 143.082 139.219 142.962 138.893H137.03V138.892Z" fill="#E6E6E6"/>
<path d="M139.916 178.245C143.246 178.245 145.945 175.543 145.945 172.211C145.945 168.879 143.246 166.177 139.916 166.177C136.586 166.177 133.887 168.879 133.887 172.211C133.887 175.543 136.586 178.245 139.916 178.245Z" fill="url(#paint2_linear_386_1306)"/>
<path d="M137.03 171.084C136.96 171.084 136.904 171.534 136.904 172.09C136.904 172.645 136.96 173.095 137.03 173.095H142.958C143.028 173.104 143.085 172.662 143.086 172.106C143.125 171.761 143.082 171.411 142.962 171.084L137.03 171.084Z" fill="#E6E6E6"/>
<path d="M139.916 210.423C143.246 210.423 145.945 207.722 145.945 204.39C145.945 201.057 143.246 198.356 139.916 198.356C136.586 198.356 133.887 201.057 133.887 204.39C133.887 207.722 136.586 210.423 139.916 210.423Z" fill="url(#paint3_linear_386_1306)"/>
<path d="M137.03 203.263C136.96 203.263 136.904 203.713 136.904 204.268C136.904 204.823 136.96 205.274 137.03 205.274H142.958C143.028 205.283 143.085 204.84 143.086 204.285C143.125 203.939 143.082 203.589 142.962 203.263L137.03 203.263Z" fill="#E6E6E6"/>
<path d="M160.177 65.5253L158.044 67.6603L175.911 85.5413L178.045 83.4063L160.177 65.5253Z" fill="white"/>
<path d="M178.044 67.6622L175.911 65.5272L158.043 83.4081L160.177 85.5432L178.044 67.6622Z" fill="white"/>
<path d="M34.0412 172.157C34.5639 171.972 35.0396 171.674 35.4349 171.285C35.8302 170.896 36.1355 170.425 36.3292 169.905C36.523 169.386 36.6004 168.83 36.5562 168.277C36.512 167.723 36.3472 167.187 36.0733 166.704L44.9592 156.565L38.0228 155.608L30.6465 165.383C29.8669 165.897 29.3027 166.68 29.0611 167.582C28.8195 168.485 28.9173 169.444 29.3357 170.28C29.7542 171.115 30.4644 171.768 31.3316 172.114C32.1988 172.46 33.1628 172.476 34.0408 172.158L34.0412 172.157Z" fill="#9F616A"/>
<path d="M44.7594 262.015H38.561L35.6121 238.088H44.7605L44.7594 262.015Z" fill="#9F616A"/>
<path d="M77.2068 256.823L71.2856 258.663L61.381 236.687L70.118 233.973L77.2068 256.823Z" fill="#9F616A"/>
<path d="M40.0126 151.704L30.8325 162.225L38.0194 162.872L40.0126 151.704Z" fill="#E6E6E6"/>
<path d="M36.4256 165.266C36.4256 165.266 33.2368 166.861 32.8381 174.041C32.4395 181.221 34.0341 199.97 34.0341 199.97C34.0341 199.97 32.4399 208.347 34.0341 215.926C35.6283 223.504 32.4399 251.026 34.4327 251.026C36.4256 251.026 46.7888 252.223 47.1874 251.026C47.5861 249.829 47.9847 231.88 47.9847 231.88C47.9847 231.88 51.1735 222.705 47.9847 217.122C47.9847 217.122 59.1185 236.578 66.3197 251.426C67.8958 254.676 79.8717 251.027 77.8789 247.437C75.886 243.847 71.1031 227.493 71.1031 227.493C71.1031 227.493 67.5156 215.526 61.1385 210.341L64.3272 184.812C64.3272 184.812 71.1034 167.66 67.1181 165.267C63.1328 162.874 36.4256 165.266 36.4256 165.266Z" fill="url(#paint4_linear_386_1306)"/>
<path d="M48.383 101.045C54.1065 101.045 58.7462 96.4016 58.7462 90.6739C58.7462 84.9462 54.1065 80.303 48.383 80.303C42.6596 80.303 38.0198 84.9462 38.0198 90.6739C38.0198 96.4016 42.6596 101.045 48.383 101.045Z" fill="#9F616A"/>
<path d="M59.9422 101.045L47.0588 108.624C47.0588 108.624 42.1258 111.404 40.283 116.202C38.3189 121.316 39.4605 128.517 40.283 130.163C41.8772 133.354 39.6144 141.332 39.6144 141.332L37.6215 159.681C37.6215 159.681 30.447 166.461 36.0273 167.259C41.6076 168.057 51.5722 166.86 57.5511 167.259C63.53 167.658 70.3058 168.456 68.3129 164.466C66.3201 160.477 63.9286 157.685 66.3201 149.709C68.1915 143.466 68.1104 120.125 67.9867 110.268C67.9699 108.914 67.6073 107.587 66.9332 106.413C66.2591 105.239 65.2961 104.257 64.1357 103.561L59.9422 101.045Z" fill="white"/>
<path opacity="0.1" d="M54.1643 113.61L55.3598 137.942L43.7716 161.427L41.8063 160.678L53.7641 138.74L54.1643 113.61Z" fill="black"/>
<path opacity="0.1" d="M67.3161 143.127V140.334L53.7656 162.672L67.3161 143.127Z" fill="black"/>
<path d="M41.0279 81.0665L39.316 80.3811C39.316 80.3811 42.8989 76.4344 47.8821 76.7774L46.4803 75.233C46.4803 75.233 49.9067 73.8603 53.0219 77.4636C54.6595 79.3579 56.5539 81.5847 57.7362 84.0927H59.5711L58.8054 85.7802L61.4854 87.4676L58.7345 87.1657C58.9951 88.6225 58.9059 90.1204 58.4743 91.5359L58.5497 92.8697C58.5497 92.8697 55.3595 87.9296 55.3595 87.2461V88.9596C55.3595 88.9596 53.6461 87.4152 53.6461 86.3856L52.7115 87.5869L52.2442 85.6998L46.4814 87.5869L47.4152 86.0417L43.8323 86.5565L45.2342 84.6694C45.2342 84.6694 41.1848 86.9 41.029 88.7879C40.8733 90.6758 38.8487 93.0777 38.8487 93.0777L37.9142 91.3615C37.9142 91.3615 36.5112 83.6405 41.0279 81.0665Z" fill="#090814"/>
<path d="M47.7328 173.286C48.2143 173.011 48.6297 172.634 48.9497 172.181C49.2697 171.727 49.4866 171.21 49.5851 170.664C49.6835 170.118 49.6612 169.557 49.5195 169.02C49.3779 168.484 49.1205 167.985 48.7654 167.559L55.7136 156.002L48.716 156.292L43.1908 167.222C42.5149 167.867 42.0988 168.737 42.0212 169.668C41.9436 170.599 42.2101 171.526 42.77 172.273C43.3299 173.021 44.1443 173.537 45.059 173.724C45.9737 173.91 46.9251 173.755 47.7328 173.286V173.286Z" fill="#9F616A"/>
<path d="M63.53 106.231L66.5192 105.633C66.5192 105.633 75.4874 112.214 72.6973 125.377C69.9071 138.541 57.5511 158.485 57.5511 158.485C57.5511 158.485 54.7602 162.075 53.9636 162.872C53.1671 163.67 51.5722 162.872 52.3694 164.069C53.1667 165.266 51.1735 166.064 51.1735 166.064C51.1735 166.064 42.4045 166.064 43.2018 162.872C43.9991 159.681 57.5511 136.943 57.5511 136.943L55.5571 115.802C55.5571 115.802 53.9633 105.433 63.53 106.231Z" fill="white"/>
<path d="M72.5811 256.738C72.5811 256.738 68.497 253.741 68.497 255.376C68.497 257.01 63.8682 263.55 63.8682 263.55C63.8682 263.55 56.2446 269 62.5067 269C68.7689 269 71.4919 267.91 71.4919 267.91L78.0267 263.55C78.0267 263.55 79.6605 261.642 79.1159 259.463C78.5713 257.283 76.6645 254.286 76.6645 254.286C76.6645 254.286 74.4872 257.283 72.5811 256.738Z" fill="#090814"/>
<path d="M38.0715 258.68C38.0715 258.68 37.508 255.86 35.5359 257.27C33.5638 258.68 28.2106 262.909 28.2106 262.909C28.2106 262.909 18.3493 265.165 24.5477 267.985C30.7461 270.804 44.8333 266.857 44.8333 266.857C44.8333 266.857 45.3968 257.834 44.8333 258.116C44.2699 258.398 38.3532 259.244 38.0715 258.68Z" fill="#090814"/>
</g>
<defs>
<linearGradient id="paint0_linear_386_1306" x1="168.043" y1="39.0877" x2="168.043" y2="111.98" gradientUnits="userSpaceOnUse">
<stop stop-color="#3DC4E0"/>
<stop offset="0.442147" stop-color="#4985EE"/>
</linearGradient>
<linearGradient id="paint1_linear_386_1306" x1="139.916" y1="133.986" x2="139.916" y2="146.053" gradientUnits="userSpaceOnUse">
<stop stop-color="#3DC4E0"/>
<stop offset="0.442147" stop-color="#4985EE"/>
</linearGradient>
<linearGradient id="paint2_linear_386_1306" x1="139.916" y1="166.177" x2="139.916" y2="178.245" gradientUnits="userSpaceOnUse">
<stop stop-color="#3DC4E0"/>
<stop offset="0.442147" stop-color="#4985EE"/>
</linearGradient>
<linearGradient id="paint3_linear_386_1306" x1="139.916" y1="198.356" x2="139.916" y2="210.423" gradientUnits="userSpaceOnUse">
<stop stop-color="#3DC4E0"/>
<stop offset="0.442147" stop-color="#4985EE"/>
</linearGradient>
<linearGradient id="paint4_linear_386_1306" x1="55.438" y1="164.203" x2="55.438" y2="252.687" gradientUnits="userSpaceOnUse">
<stop stop-color="#3DC4E0"/>
<stop offset="0.442147" stop-color="#4985EE"/>
</linearGradient>
<clipPath id="clip0_386_1306">
<rect width="280" height="269" fill="white"/>
</clipPath>
</defs>
</svg>
