<svg width="377" height="208" viewBox="0 0 377 208" fill="none" xmlns="http://www.w3.org/2000/svg">
<path d="M71.7343 151.232H308.931C310.967 151.232 312.619 152.885 312.619 154.926V203.166C312.619 205.208 310.967 206.862 308.931 206.862H71.7343C69.6979 206.861 68.0458 205.207 68.0458 203.166V154.926C68.0461 152.885 69.698 151.232 71.7343 151.232Z" fill="white" stroke="black"/>
<path d="M145.096 151.205H143.606V95.2099H37.3083V93.7192H145.096V151.205Z" fill="#3F3D56"/>
<path d="M20.6994 110.852C32.1314 110.852 41.3988 101.571 41.3988 90.1232C41.3988 78.6751 32.1314 69.3946 20.6994 69.3946C9.26744 69.3946 0 78.6751 0 90.1232C0 101.571 9.26744 110.852 20.6994 110.852Z" fill="white"/>
<path d="M17.8745 100.912C17.5171 100.912 17.1645 100.829 16.8448 100.669C16.5251 100.509 16.247 100.276 16.0324 99.9899L10.3869 92.4518C10.0446 91.9613 9.90613 91.3567 10.0006 90.7658C10.0951 90.1749 10.4151 89.6439 10.8932 89.2848C11.3713 88.9258 11.9699 88.7668 12.5629 88.8414C13.1558 88.9161 13.6965 89.2185 14.071 89.6848L17.7656 94.6174L27.2545 80.364C27.6023 79.8768 28.1256 79.5441 28.7138 79.4363C29.3021 79.3284 29.9091 79.4539 30.4067 79.7861C30.9043 80.1183 31.2534 80.6313 31.3802 81.2165C31.507 81.8018 31.4016 82.4135 31.0863 82.9223L19.792 99.8877C19.5876 100.194 19.3128 100.448 18.9906 100.626C18.6684 100.805 18.3081 100.903 17.94 100.914L17.8745 100.912Z" fill="url(#paint0_linear_46_353)"/>
<path d="M233.474 151.205H231.984V93.7192H339.772V95.2115H233.474V151.205Z" fill="#3F3D56"/>
<path d="M356.3 110.852C367.732 110.852 377 101.571 377 90.1232C377 78.6751 367.732 69.3946 356.3 69.3946C344.868 69.3946 335.601 78.6751 335.601 90.1232C335.601 101.571 344.868 110.852 356.3 110.852Z" fill="white"/>
<path d="M353.479 100.912C353.121 100.912 352.769 100.829 352.449 100.669C352.129 100.509 351.851 100.276 351.637 99.9899L345.988 92.4518C345.794 92.2106 345.651 91.9328 345.566 91.635C345.482 91.3372 345.459 91.0255 345.497 90.7184C345.536 90.4113 345.636 90.1151 345.791 89.8474C345.946 89.5798 346.153 89.3461 346.401 89.1604C346.648 88.9747 346.93 88.8407 347.23 88.7664C347.53 88.6921 347.842 88.6791 348.147 88.728C348.452 88.7769 348.745 88.8869 349.007 89.0512C349.268 89.2156 349.495 89.4311 349.672 89.6848L353.366 94.6174L362.855 80.364C363.018 80.1012 363.232 79.8739 363.484 79.6955C363.737 79.5172 364.022 79.3915 364.324 79.3259C364.626 79.2603 364.938 79.2562 365.241 79.3138C365.545 79.3713 365.834 79.4894 366.091 79.661C366.348 79.8326 366.568 80.0541 366.737 80.3125C366.907 80.5709 367.023 80.8609 367.079 81.1651C367.135 81.4694 367.128 81.7817 367.061 82.0836C366.994 82.3855 366.867 82.6707 366.687 82.9223L355.393 99.8876C355.188 100.194 354.914 100.448 354.591 100.626C354.269 100.805 353.909 100.903 353.541 100.914L353.479 100.912Z" fill="url(#paint1_linear_46_353)"/>
<path d="M189.285 32.0069H187.795V151.206H189.285V32.0069Z" fill="#3F3D56"/>
<path d="M190.589 41.4572C202.021 41.4572 211.288 32.1767 211.288 20.7286C211.288 9.28052 202.021 0 190.589 0C179.157 0 169.889 9.28052 169.889 20.7286C169.889 32.1767 179.157 41.4572 190.589 41.4572Z" fill="white"/>
<path d="M187.764 31.5176C187.406 31.5175 187.054 31.4341 186.734 31.2741C186.414 31.114 186.136 30.8816 185.922 30.5953L180.276 23.0573C179.934 22.5667 179.795 21.9621 179.89 21.3712C179.984 20.7803 180.304 20.2493 180.782 19.8903C181.261 19.5312 181.859 19.3722 182.452 19.4468C183.045 19.5215 183.586 19.8239 183.96 20.2903L187.655 25.2228L197.144 10.9694C197.492 10.4822 198.015 10.1495 198.603 10.0417C199.191 9.93385 199.798 10.0593 200.296 10.3915C200.794 10.7237 201.143 11.2367 201.27 11.8219C201.396 12.4072 201.291 13.0189 200.976 13.5277L189.681 30.4931C189.477 30.7999 189.202 31.0532 188.88 31.2317C188.558 31.4103 188.197 31.5089 187.829 31.5192L187.764 31.5176Z" fill="url(#paint2_linear_46_353)"/>
<path d="M124.233 190.94C122.85 190.938 121.525 190.387 120.547 189.408C119.569 188.429 119.019 187.102 119.017 185.717V172.286C119.017 170.9 119.567 169.572 120.545 168.592C121.523 167.613 122.85 167.062 124.233 167.062C125.617 167.062 126.943 167.613 127.922 168.592C128.9 169.572 129.449 170.9 129.449 172.286V185.717C129.448 187.102 128.897 188.429 127.92 189.409C126.942 190.388 125.616 190.938 124.233 190.94Z" fill="url(#paint3_linear_46_353)"/>
<path d="M139.136 190.94C137.753 190.938 136.427 190.388 135.449 189.409C134.471 188.429 133.921 187.102 133.919 185.717V172.286C133.919 170.9 134.469 169.572 135.447 168.592C136.425 167.613 137.752 167.062 139.135 167.062C140.519 167.062 141.845 167.613 142.824 168.592C143.802 169.572 144.351 170.9 144.351 172.286V185.717C144.35 187.102 143.799 188.429 142.822 189.408C141.844 190.387 140.518 190.938 139.136 190.94Z" fill="url(#paint4_linear_46_353)"/>
<path d="M290.414 172.134H164.487C164.195 172.127 163.917 172.007 163.712 171.797C163.508 171.588 163.393 171.307 163.393 171.014C163.393 170.722 163.508 170.441 163.712 170.231C163.917 170.022 164.195 169.902 164.487 169.895H290.416C290.708 169.902 290.986 170.022 291.19 170.231C291.395 170.441 291.509 170.722 291.509 171.014C291.509 171.307 291.395 171.588 291.19 171.797C290.986 172.007 290.708 172.127 290.416 172.134H290.414Z" fill="#090814"/>
<path d="M290.414 181.613H164.487C164.195 181.607 163.917 181.486 163.712 181.277C163.508 181.067 163.393 180.786 163.393 180.494C163.393 180.201 163.508 179.92 163.712 179.711C163.917 179.501 164.195 179.381 164.487 179.374H290.416C290.708 179.381 290.986 179.501 291.19 179.711C291.395 179.92 291.509 180.201 291.509 180.494C291.509 180.786 291.395 181.067 291.19 181.277C290.986 181.486 290.708 181.607 290.416 181.613H290.414Z" fill="#090814"/>
<path d="M290.414 191.092H164.487C164.195 191.085 163.917 190.965 163.712 190.755C163.508 190.546 163.393 190.265 163.393 189.972C163.393 189.68 163.508 189.399 163.712 189.189C163.917 188.98 164.195 188.859 164.487 188.853H290.416C290.708 188.859 290.986 188.98 291.19 189.189C291.395 189.399 291.509 189.68 291.509 189.972C291.509 190.265 291.395 190.546 291.19 190.755C290.986 190.965 290.708 191.085 290.416 191.092H290.414Z" fill="#090814"/>
<defs>
<linearGradient id="paint0_linear_46_353" x1="20.7021" y1="79.3986" x2="20.7021" y2="100.914" gradientUnits="userSpaceOnUse">
<stop stop-color="#3DC4E0"/>
<stop offset="0.442147" stop-color="#4985EE"/>
</linearGradient>
<linearGradient id="paint1_linear_46_353" x1="356.298" y1="79.2735" x2="356.298" y2="100.914" gradientUnits="userSpaceOnUse">
<stop stop-color="#3DC4E0"/>
<stop offset="0.442147" stop-color="#4985EE"/>
</linearGradient>
<linearGradient id="paint2_linear_46_353" x1="190.591" y1="10.004" x2="190.591" y2="31.5192" gradientUnits="userSpaceOnUse">
<stop stop-color="#3DC4E0"/>
<stop offset="0.442147" stop-color="#4985EE"/>
</linearGradient>
<linearGradient id="paint3_linear_46_353" x1="124.233" y1="167.062" x2="124.233" y2="190.94" gradientUnits="userSpaceOnUse">
<stop stop-color="#3DC4E0"/>
<stop offset="0.442147" stop-color="#4985EE"/>
</linearGradient>
<linearGradient id="paint4_linear_46_353" x1="139.135" y1="167.062" x2="139.135" y2="190.94" gradientUnits="userSpaceOnUse">
<stop stop-color="#3DC4E0"/>
<stop offset="0.442147" stop-color="#4985EE"/>
</linearGradient>
</defs>
</svg>
