<svg width="40" height="37" viewBox="0 0 40 37" fill="none" xmlns="http://www.w3.org/2000/svg">
<path d="M10 35.4583C8.61111 35.4583 7.43056 35.0087 6.45833 34.1094C5.48611 33.2101 5 32.1181 5 30.8333C5 29.5486 5.48611 28.4566 6.45833 27.5573C7.43056 26.658 8.61111 26.2083 10 26.2083C10.3889 26.2083 10.75 26.2469 11.0833 26.324C11.4167 26.401 11.7361 26.5038 12.0417 26.6323L14.4167 23.8958C13.6389 23.0993 13.0972 22.2 12.7917 21.1979C12.4861 20.1958 12.4167 19.1937 12.5833 18.1917L9.20833 17.151C8.73611 17.7934 8.13889 18.3073 7.41667 18.6927C6.69444 19.0781 5.88889 19.2708 5 19.2708C3.61111 19.2708 2.43056 18.8212 1.45833 17.9219C0.486111 17.0226 0 15.9306 0 14.6458C0 13.3611 0.486111 12.2691 1.45833 11.3698C2.43056 10.4705 3.61111 10.0208 5 10.0208C6.38889 10.0208 7.56944 10.4705 8.54167 11.3698C9.51389 12.2691 10 13.3611 10 14.6458V14.9542L13.375 16.0333C13.9306 15.1083 14.6736 14.3247 15.6042 13.6823C16.5347 13.0399 17.5833 12.6288 18.75 12.449V9.09583C17.6667 8.81319 16.7708 8.26719 16.0625 7.45781C15.3542 6.64844 15 5.70417 15 4.625C15 3.34028 15.4861 2.24826 16.4583 1.34896C17.4306 0.449653 18.6111 0 20 0C21.3889 0 22.5694 0.449653 23.5417 1.34896C24.5139 2.24826 25 3.34028 25 4.625C25 5.70417 24.6389 6.64844 23.9167 7.45781C23.1944 8.26719 22.3056 8.81319 21.25 9.09583V12.449C22.4167 12.6288 23.4653 13.0399 24.3958 13.6823C25.3264 14.3247 26.0694 15.1083 26.625 16.0333L30 14.9542V14.6458C30 13.3611 30.4861 12.2691 31.4583 11.3698C32.4306 10.4705 33.6111 10.0208 35 10.0208C36.3889 10.0208 37.5694 10.4705 38.5417 11.3698C39.5139 12.2691 40 13.3611 40 14.6458C40 15.9306 39.5139 17.0226 38.5417 17.9219C37.5694 18.8212 36.3889 19.2708 35 19.2708C34.1111 19.2708 33.2986 19.0781 32.5625 18.6927C31.8264 18.3073 31.2361 17.7934 30.7917 17.151L27.4167 18.1917C27.5833 19.1937 27.5139 20.1894 27.2083 21.1786C26.9028 22.1679 26.3611 23.0736 25.5833 23.8958L27.9583 26.5937C28.2639 26.4653 28.5833 26.3689 28.9167 26.3047C29.25 26.2404 29.6111 26.2083 30 26.2083C31.3889 26.2083 32.5694 26.658 33.5417 27.5573C34.5139 28.4566 35 29.5486 35 30.8333C35 32.1181 34.5139 33.2101 33.5417 34.1094C32.5694 35.0087 31.3889 35.4583 30 35.4583C28.6111 35.4583 27.4306 35.0087 26.4583 34.1094C25.4861 33.2101 25 32.1181 25 30.8333C25 30.3194 25.0903 29.8248 25.2708 29.3495C25.4514 28.8741 25.6944 28.4437 26 28.0583L23.625 25.3219C22.4861 25.9128 21.2708 26.2083 19.9792 26.2083C18.6875 26.2083 17.4722 25.9128 16.3333 25.3219L14 28.0583C14.3056 28.4437 14.5486 28.8741 14.7292 29.3495C14.9097 29.8248 15 30.3194 15 30.8333C15 32.1181 14.5139 33.2101 13.5417 34.1094C12.5694 35.0087 11.3889 35.4583 10 35.4583ZM5 16.1875C5.47222 16.1875 5.86806 16.0398 6.1875 15.7443C6.50694 15.4488 6.66667 15.0826 6.66667 14.6458C6.66667 14.209 6.50694 13.8429 6.1875 13.5474C5.86806 13.2519 5.47222 13.1042 5 13.1042C4.52778 13.1042 4.13194 13.2519 3.8125 13.5474C3.49306 13.8429 3.33333 14.209 3.33333 14.6458C3.33333 15.0826 3.49306 15.4488 3.8125 15.7443C4.13194 16.0398 4.52778 16.1875 5 16.1875ZM10 32.375C10.4722 32.375 10.8681 32.2273 11.1875 31.9318C11.5069 31.6363 11.6667 31.2701 11.6667 30.8333C11.6667 30.3965 11.5069 30.0304 11.1875 29.7349C10.8681 29.4394 10.4722 29.2917 10 29.2917C9.52778 29.2917 9.13194 29.4394 8.8125 29.7349C8.49306 30.0304 8.33333 30.3965 8.33333 30.8333C8.33333 31.2701 8.49306 31.6363 8.8125 31.9318C9.13194 32.2273 9.52778 32.375 10 32.375ZM20 6.16667C20.4722 6.16667 20.8681 6.01892 21.1875 5.72344C21.5069 5.42795 21.6667 5.06181 21.6667 4.625C21.6667 4.18819 21.5069 3.82205 21.1875 3.52656C20.8681 3.23108 20.4722 3.08333 20 3.08333C19.5278 3.08333 19.1319 3.23108 18.8125 3.52656C18.4931 3.82205 18.3333 4.18819 18.3333 4.625C18.3333 5.06181 18.4931 5.42795 18.8125 5.72344C19.1319 6.01892 19.5278 6.16667 20 6.16667ZM20 23.125C21.1667 23.125 22.1528 22.7524 22.9583 22.0073C23.7639 21.2622 24.1667 20.35 24.1667 19.2708C24.1667 18.1917 23.7639 17.2795 22.9583 16.5344C22.1528 15.7892 21.1667 15.4167 20 15.4167C18.8333 15.4167 17.8472 15.7892 17.0417 16.5344C16.2361 17.2795 15.8333 18.1917 15.8333 19.2708C15.8333 20.35 16.2361 21.2622 17.0417 22.0073C17.8472 22.7524 18.8333 23.125 20 23.125ZM30 32.375C30.4722 32.375 30.8681 32.2273 31.1875 31.9318C31.5069 31.6363 31.6667 31.2701 31.6667 30.8333C31.6667 30.3965 31.5069 30.0304 31.1875 29.7349C30.8681 29.4394 30.4722 29.2917 30 29.2917C29.5278 29.2917 29.1319 29.4394 28.8125 29.7349C28.4931 30.0304 28.3333 30.3965 28.3333 30.8333C28.3333 31.2701 28.4931 31.6363 28.8125 31.9318C29.1319 32.2273 29.5278 32.375 30 32.375ZM35 16.1875C35.4722 16.1875 35.8681 16.0398 36.1875 15.7443C36.5069 15.4488 36.6667 15.0826 36.6667 14.6458C36.6667 14.209 36.5069 13.8429 36.1875 13.5474C35.8681 13.2519 35.4722 13.1042 35 13.1042C34.5278 13.1042 34.1319 13.2519 33.8125 13.5474C33.4931 13.8429 33.3333 14.209 33.3333 14.6458C33.3333 15.0826 33.4931 15.4488 33.8125 15.7443C34.1319 16.0398 34.5278 16.1875 35 16.1875Z" fill="url(#paint0_linear_43_137)"/>
<defs>
<linearGradient id="paint0_linear_43_137" x1="20" y1="0" x2="20" y2="35.4583" gradientUnits="userSpaceOnUse">
<stop stop-color="#3DC4E0"/>
<stop offset="0.442147" stop-color="#4985EE"/>
</linearGradient>
</defs>
</svg>
