<svg width="300" height="300" viewBox="0 0 300 300" fill="none" xmlns="http://www.w3.org/2000/svg">
<mask id="path-1-inside-1_29_79" fill="white">
<path d="M282.621 220.084C265.628 252.24 237.531 277.127 203.558 290.113C169.586 303.099 132.052 303.299 97.9428 290.677C63.8334 278.055 35.4718 253.47 18.1362 221.498C0.800522 189.525 -4.32823 152.343 3.7044 116.871C11.737 81.3996 32.3839 50.0545 61.8024 28.6696C91.2209 7.28463 127.407 -2.68344 163.627 0.620484C199.846 3.92441 233.632 20.2753 258.695 46.6301C283.759 72.9849 298.394 107.548 299.876 143.888L290.089 144.287C288.703 110.321 275.024 78.0141 251.597 53.3803C228.17 28.7466 196.591 13.4634 162.737 10.3753C128.883 7.28708 95.0593 16.6042 67.5619 36.5927C40.0644 56.5812 20.7659 85.8794 13.2578 119.035C5.7497 152.19 10.5435 186.944 26.7471 216.829C42.9507 246.713 69.4603 269.693 101.342 281.491C133.224 293.289 168.307 293.101 200.061 280.963C231.815 268.825 258.077 245.564 273.961 215.508L282.621 220.084Z"/>
</mask>
<path d="M282.621 220.084C265.628 252.24 237.531 277.127 203.558 290.113C169.586 303.099 132.052 303.299 97.9428 290.677C63.8334 278.055 35.4718 253.47 18.1362 221.498C0.800522 189.525 -4.32823 152.343 3.7044 116.871C11.737 81.3996 32.3839 50.0545 61.8024 28.6696C91.2209 7.28463 127.407 -2.68344 163.627 0.620484C199.846 3.92441 233.632 20.2753 258.695 46.6301C283.759 72.9849 298.394 107.548 299.876 143.888L290.089 144.287C288.703 110.321 275.024 78.0141 251.597 53.3803C228.17 28.7466 196.591 13.4634 162.737 10.3753C128.883 7.28708 95.0593 16.6042 67.5619 36.5927C40.0644 56.5812 20.7659 85.8794 13.2578 119.035C5.7497 152.19 10.5435 186.944 26.7471 216.829C42.9507 246.713 69.4603 269.693 101.342 281.491C133.224 293.289 168.307 293.101 200.061 280.963C231.815 268.825 258.077 245.564 273.961 215.508L282.621 220.084Z" fill="url(#paint0_linear_29_79)" stroke="url(#paint1_linear_29_79)" stroke-width="6" mask="url(#path-1-inside-1_29_79)"/>
<defs>
<linearGradient id="paint0_linear_29_79" x1="150" y1="0.000274658" x2="150" y2="300" gradientUnits="userSpaceOnUse">
<stop stop-color="#3DC4E0"/>
<stop offset="0.442147" stop-color="#4985EE"/>
</linearGradient>
<linearGradient id="paint1_linear_29_79" x1="150" y1="0.000274658" x2="150" y2="300" gradientUnits="userSpaceOnUse">
<stop stop-color="#3DC4E0"/>
<stop offset="0.442147" stop-color="#4985EE"/>
</linearGradient>
</defs>
</svg>
