<svg xmlns="http://www.w3.org/2000/svg" xmlns:xlink="http://www.w3.org/1999/xlink" width="500" zoomAndPan="magnify" viewBox="0 0 375 374.999991" height="500" preserveAspectRatio="xMidYMid meet" version="1.0"><defs><clipPath id="2d243c2ded"><path d="M 28 0 L 351.246094 0 L 351.246094 375 L 28 375 Z M 28 0 " clip-rule="nonzero"/></clipPath></defs><g clip-path="url(#2d243c2ded)"><path fill="#4985ee" d="M 108.824219 267.320312 L 108.824219 139.875 L 121.707031 132.433594 C 144.332031 119.367188 166.957031 106.3125 189.574219 93.246094 C 216.492188 108.785156 243.410156 124.328125 270.328125 139.867188 L 270.328125 267.320312 C 288.273438 267.320312 306.222656 267.320312 324.167969 267.320312 L 324.167969 294.238281 C 297.25 294.238281 270.328125 294.238281 243.410156 294.238281 L 243.410156 155.414062 L 216.492188 139.875 L 216.492188 374.992188 L 351.085938 374.992188 L 351.085938 348.074219 L 243.410156 348.074219 L 243.410156 321.15625 L 351.085938 321.15625 L 351.085938 93.246094 L 189.574219 0 L 28.070312 93.246094 L 28.070312 321.15625 L 135.742188 321.15625 L 135.742188 348.074219 L 28.070312 348.074219 L 28.070312 374.992188 L 162.664062 374.992188 L 162.664062 139.867188 L 135.742188 155.40625 L 135.742188 294.230469 C 108.824219 294.230469 81.90625 294.230469 54.988281 294.230469 L 54.988281 267.3125 L 108.824219 267.3125 Z M 54.988281 240.398438 L 54.988281 108.785156 L 189.574219 31.078125 L 324.160156 108.785156 L 324.160156 240.398438 L 297.242188 240.398438 L 297.242188 124.328125 L 189.574219 62.167969 L 81.90625 124.328125 L 81.90625 240.398438 Z M 54.988281 240.398438 " fill-opacity="1" fill-rule="nonzero"/></g></svg>