<svg width="24" height="24" viewBox="0 0 24 24" fill="none" xmlns="http://www.w3.org/2000/svg">
<path d="M14.4 19.275C14.0333 19.7083 13.5792 19.9542 13.0375 20.0125C12.4958 20.0708 12.0083 19.9167 11.575 19.55L7.35 16.025C6.91667 15.675 6.54167 15.275 6.225 14.825C5.90833 14.375 5.65 13.8917 5.45 13.375C5.26667 13.575 5.05 13.7292 4.8 13.8375C4.55 13.9458 4.28333 14 4 14H2V6H4C4.48333 6 4.9125 6.15 5.2875 6.45C5.6625 6.75 5.89167 7.14167 5.975 7.625C6.60833 6.65833 7.425 5.89583 8.425 5.3375C9.425 4.77917 10.5 4.5 11.65 4.5C12.4 4.5 13.1125 4.63333 13.7875 4.9C14.4625 5.16667 15.0833 5.54167 15.65 6.025L19.9 9.55C20.3333 9.9 20.5708 10.3458 20.6125 10.8875C20.6542 11.4292 20.5 11.9167 20.15 12.35L14.4 19.275Z" fill="url(#paint0_linear_578_884)"/>
<defs>
<linearGradient id="paint0_linear_578_884" x1="11.3096" y1="4.5" x2="11.3096" y2="20.0245" gradientUnits="userSpaceOnUse">
<stop stop-color="#3DC4E0"/>
<stop offset="0.442147" stop-color="#4985EE"/>
</linearGradient>
</defs>
</svg>
