<svg width="30" height="31" viewBox="0 0 30 31" fill="none" xmlns="http://www.w3.org/2000/svg">
<path d="M6.25 23.0562C7.375 21.9153 8.68229 21.0165 10.1719 20.3599C11.6615 19.7033 13.2708 19.375 15 19.375C16.7292 19.375 18.3385 19.7033 19.8281 20.3599C21.3177 21.0165 22.625 21.9153 23.75 23.0562V6.45833H6.25V23.0562ZM15 16.7917C16.2083 16.7917 17.2396 16.3503 18.0938 15.4677C18.9479 14.5851 19.375 13.5194 19.375 12.2708C19.375 11.0222 18.9479 9.9566 18.0938 9.07396C17.2396 8.19132 16.2083 7.75 15 7.75C13.7917 7.75 12.7604 8.19132 11.9062 9.07396C11.0521 9.9566 10.625 11.0222 10.625 12.2708C10.625 13.5194 11.0521 14.5851 11.9062 15.4677C12.7604 16.3503 13.7917 16.7917 15 16.7917ZM6.25 27.125C5.5625 27.125 4.97396 26.872 4.48438 26.3661C3.99479 25.8602 3.75 25.2521 3.75 24.5417V6.45833C3.75 5.74792 3.99479 5.13976 4.48438 4.63385C4.97396 4.12795 5.5625 3.875 6.25 3.875H23.75C24.4375 3.875 25.026 4.12795 25.5156 4.63385C26.0052 5.13976 26.25 5.74792 26.25 6.45833V24.5417C26.25 25.2521 26.0052 25.8602 25.5156 26.3661C25.026 26.872 24.4375 27.125 23.75 27.125H6.25ZM8.40625 24.5417H21.5938C20.6771 23.7021 19.6406 23.0616 18.4844 22.6203C17.3281 22.179 16.1667 21.9583 15 21.9583C13.8333 21.9583 12.6615 22.179 11.4844 22.6203C10.3073 23.0616 9.28125 23.7021 8.40625 24.5417ZM15 14.2083C14.4792 14.2083 14.0365 14.02 13.6719 13.6432C13.3073 13.2665 13.125 12.809 13.125 12.2708C13.125 11.7326 13.3073 11.2752 13.6719 10.8984C14.0365 10.5217 14.4792 10.3333 15 10.3333C15.5208 10.3333 15.9635 10.5217 16.3281 10.8984C16.6927 11.2752 16.875 11.7326 16.875 12.2708C16.875 12.809 16.6927 13.2665 16.3281 13.6432C15.9635 14.02 15.5208 14.2083 15 14.2083Z" fill="black"/>
</svg>
