<svg width="24" height="24" viewBox="0 0 24 24" fill="none" xmlns="http://www.w3.org/2000/svg">
<path d="M8.0749 20C7.89157 20 7.72074 19.9542 7.5624 19.8625C7.40407 19.7708 7.28324 19.6417 7.1999 19.475L5.2499 16H6.6999L7.6999 18H9.9999V17H8.2999L7.2999 15H4.6999L3.2749 12.5C3.24157 12.4167 3.2124 12.3333 3.1874 12.25C3.1624 12.1667 3.1499 12.0833 3.1499 12C3.1499 11.9333 3.19157 11.7667 3.2749 11.5L4.6999 9H7.2999L8.2999 7H9.9999V6H7.6999L6.6999 8H5.2499L7.1999 4.525C7.28324 4.35833 7.40407 4.22917 7.5624 4.1375C7.72074 4.04583 7.89157 4 8.0749 4H10.4999C10.7832 4 11.0207 4.09583 11.2124 4.2875C11.4041 4.47917 11.4999 4.71667 11.4999 5V9H9.9999L8.9999 10H11.4999V13H9.2999L8.2999 11H5.9999L4.9999 12H7.6999L8.6999 14H11.4999V19C11.4999 19.2833 11.4041 19.5208 11.2124 19.7125C11.0207 19.9042 10.7832 20 10.4999 20H8.0749ZM13.4999 20C13.2166 20 12.9791 19.9042 12.7874 19.7125C12.5957 19.5208 12.4999 19.2833 12.4999 19V14H15.2999L16.2999 12H18.9999L17.9999 11H15.6999L14.6999 13H12.4999V10H14.9999L13.9999 9H12.4999V5C12.4999 4.71667 12.5957 4.47917 12.7874 4.2875C12.9791 4.09583 13.2166 4 13.4999 4H15.9249C16.1082 4 16.2791 4.04583 16.4374 4.1375C16.5957 4.22917 16.7166 4.35833 16.7999 4.525L18.7499 8H17.2999L16.2999 6H13.9999V7H15.6999L16.6999 9H19.2999L20.7249 11.5C20.7582 11.5833 20.7874 11.6667 20.8124 11.75C20.8374 11.8333 20.8499 11.9167 20.8499 12C20.8499 12.0667 20.8082 12.2333 20.7249 12.5L19.2999 15H16.6999L15.6999 17H13.9999V18H16.2999L17.2999 16H18.7499L16.7999 19.475C16.7166 19.6417 16.5957 19.7708 16.4374 19.8625C16.2791 19.9542 16.1082 20 15.9249 20H13.4999Z" fill="black"/>
</svg>
