<svg width="24" height="24" viewBox="0 0 24 24" fill="none" xmlns="http://www.w3.org/2000/svg">
<path d="M7.39989 17.25C6.69989 17.8333 5.97072 18.1 5.21239 18.05C4.45406 18 3.79156 17.7417 3.22489 17.275C2.65822 16.8083 2.27072 16.1958 2.06239 15.4375C1.85405 14.6792 1.99155 13.9 2.47489 13.1L4.34989 10C3.93322 9.63333 3.60406 9.19167 3.36239 8.675C3.12072 8.15833 2.99989 7.6 2.99989 7C2.99989 5.9 3.39155 4.95833 4.17489 4.175C4.95822 3.39167 5.89989 3 6.99989 3C8.09989 3 9.04155 3.39167 9.82489 4.175C10.6082 4.95833 10.9999 5.9 10.9999 7C10.9999 8.1 10.6082 9.04167 9.82489 9.825C9.04155 10.6083 8.09989 11 6.99989 11C6.84989 11 6.69989 10.9917 6.54989 10.975C6.39989 10.9583 6.25822 10.9333 6.12489 10.9L4.19989 14.15C4.01656 14.45 3.95822 14.7458 4.02489 15.0375C4.09156 15.3292 4.23322 15.5667 4.44989 15.75C4.66656 15.9333 4.92489 16.0375 5.22489 16.0625C5.52489 16.0875 5.81656 15.9833 6.09989 15.75L16.5999 6.725C17.2999 6.14167 18.0332 5.87917 18.7999 5.9375C19.5666 5.99583 20.2332 6.25833 20.7999 6.725C21.3666 7.19167 21.7499 7.80417 21.9499 8.5625C22.1499 9.32083 22.0082 10.1 21.5249 10.9L19.6499 14C20.0666 14.3667 20.3957 14.8083 20.6374 15.325C20.8791 15.8417 20.9999 16.4 20.9999 17C20.9999 18.1 20.6082 19.0417 19.8249 19.825C19.0416 20.6083 18.0999 21 16.9999 21C15.8999 21 14.9582 20.6083 14.1749 19.825C13.3916 19.0417 12.9999 18.1 12.9999 17C12.9999 15.9 13.3916 14.9583 14.1749 14.175C14.9582 13.3917 15.8999 13 16.9999 13C17.1499 13 17.2957 13.0083 17.4374 13.025C17.5791 13.0417 17.7166 13.0667 17.8499 13.1L19.7999 9.85C19.9832 9.55 20.0416 9.25417 19.9749 8.9625C19.9082 8.67083 19.7666 8.43333 19.5499 8.25C19.3332 8.06667 19.0749 7.9625 18.7749 7.9375C18.4749 7.9125 18.1832 8.01667 17.8999 8.25L7.39989 17.25ZM6.99989 9C7.54989 9 8.02072 8.80417 8.41239 8.4125C8.80406 8.02083 8.99989 7.55 8.99989 7C8.99989 6.45 8.80406 5.97917 8.41239 5.5875C8.02072 5.19583 7.54989 5 6.99989 5C6.44989 5 5.97906 5.19583 5.58739 5.5875C5.19572 5.97917 4.99989 6.45 4.99989 7C4.99989 7.55 5.19572 8.02083 5.58739 8.4125C5.97906 8.80417 6.44989 9 6.99989 9ZM16.9999 19C17.5499 19 18.0207 18.8042 18.4124 18.4125C18.8041 18.0208 18.9999 17.55 18.9999 17C18.9999 16.45 18.8041 15.9792 18.4124 15.5875C18.0207 15.1958 17.5499 15 16.9999 15C16.4499 15 15.9791 15.1958 15.5874 15.5875C15.1957 15.9792 14.9999 16.45 14.9999 17C14.9999 17.55 15.1957 18.0208 15.5874 18.4125C15.9791 18.8042 16.4499 19 16.9999 19Z" fill="black"/>
</svg>
