<svg width="23" height="18" viewBox="0 0 23 18" fill="none" xmlns="http://www.w3.org/2000/svg">
<path d="M18.8025 6.8625L17.1925 5.23125L19.665 2.86875L21.275 4.44375L18.8025 6.8625ZM0 18V15.75H23V18H0ZM10.35 3.375V0H12.65V3.375H10.35ZM4.1975 6.80625L1.7825 4.3875L3.3925 2.8125L5.865 5.23125L4.1975 6.80625ZM6.23875 11.25H16.7613C16.3204 10.2375 15.6304 9.42187 14.6913 8.80312C13.7521 8.18437 12.6883 7.875 11.5 7.875C10.3117 7.875 9.24792 8.18437 8.30875 8.80312C7.36958 9.42187 6.67958 10.2375 6.23875 11.25ZM3.45 13.5C3.45 11.3062 4.23104 9.44531 5.79313 7.91719C7.35521 6.38906 9.2575 5.625 11.5 5.625C13.7425 5.625 15.6448 6.38906 17.2069 7.91719C18.769 9.44531 19.55 11.3062 19.55 13.5H3.45Z" fill="black"/>
</svg>
